<svg
	width="56"
	height="56"
	viewBox="0 0 56 56"
	fill="none"
	xmlns="http://www.w3.org/2000/svg"
>
	<g id="activity-heart">
		<path
			id="Icon"
			d="M36.167 26.8333H33.8337L30.3337 33.8333L25.667 19.8333L22.167 26.8333H19.8337M27.9843 11.9836C23.3192 6.5296 15.5397 5.0625 9.69461 10.0567C3.84949 15.0509 3.02658 23.4009 7.61679 29.3076C11.0839 33.769 20.9333 42.7256 25.5457 46.8414C26.3936 47.598 26.8175 47.9763 27.3139 48.1252C27.7449 48.2545 28.2238 48.2545 28.6548 48.1252C29.1512 47.9763 29.5751 47.598 30.423 46.8414C35.0353 42.7256 44.8848 33.769 48.3519 29.3076C52.9421 23.4009 52.2197 14.9984 46.2741 10.0567C40.3285 5.11503 32.6495 6.5296 27.9843 11.9836Z"
			stroke="#E77B7B"
			stroke-width="4"
			stroke-linecap="round"
			stroke-linejoin="round"
		/>
	</g>
</svg>
