<svg
	width="56"
	height="56"
	viewBox="0 0 56 56"
	fill="none"
	xmlns="http://www.w3.org/2000/svg"
>
	<g id="airplane-01">
		<g id="elements">
			<path
				id="Vector (Stroke)"
				fill-rule="evenodd"
				clip-rule="evenodd"
				d="M35.7657 7.26529C38.5336 5.02883 41.624 4.96842 44.2786 5.00563C44.3673 5.00687 44.4556 5.00794 44.5436 5.009C45.6392 5.02221 46.6785 5.03473 47.5749 5.38235C48.9696 5.92324 50.077 7.03067 50.6179 8.4254C50.9655 9.32176 50.978 10.361 50.9913 11.4567C50.9923 11.5446 50.9934 11.633 50.9946 11.7216C51.0318 14.3763 50.9714 17.4667 48.735 20.2346C47.9001 21.2678 46.8065 22.0688 45.9604 22.6884C45.8585 22.7631 45.7602 22.8351 45.6664 22.9045C44.6867 23.6297 44.056 24.1649 43.6752 24.7939C43.2493 25.4974 43.3625 26.2066 43.8102 28.0414L46.7965 40.2804C47.144 41.7047 47.2348 43.0731 46.8619 44.4178C46.4883 45.7655 45.7094 46.8716 44.7045 47.8766C44.1215 48.4596 43.1255 49.224 41.8017 49.0739C40.4799 48.924 39.6643 47.9568 39.1982 47.2141L31.3743 34.7481L28.8204 36.7782C27.1054 38.1414 26.7995 38.4468 26.6352 38.7966C26.365 39.3716 26.258 40.2502 26.2927 41.4914C26.309 42.0782 26.3532 42.6767 26.3996 43.3072L26.4018 43.3374C26.4475 43.957 26.4965 44.6252 26.5053 45.2494C26.5202 46.3152 26.1133 47.5824 25.5291 48.5785C24.9917 49.4949 23.8721 50.8976 22.0747 50.9954C20.5953 51.0759 19.7082 50.1428 19.287 49.4968C18.989 49.0398 18.7346 48.4081 18.6351 48.1608C18.6176 48.1173 18.6048 48.0857 18.5975 48.069L15.7217 41.5324L17.5524 40.727L15.7217 41.5324C15.5407 41.121 15.4415 40.9005 15.3594 40.7457C15.3439 40.7165 15.3314 40.6945 15.3219 40.6783C15.3058 40.6688 15.2837 40.6564 15.2545 40.6409C15.0998 40.5588 14.8793 40.4595 14.4678 40.2785L7.93122 37.4028C7.91457 37.3954 7.88296 37.3827 7.83944 37.3652C7.59218 37.2656 6.96048 37.0113 6.50344 36.7133C5.85745 36.2921 4.92437 35.4049 5.00488 33.9255C5.10269 32.1282 6.50539 31.0086 7.42177 30.4711C8.41786 29.8869 9.68503 29.48 10.7508 29.495C11.3751 29.5037 12.0433 29.5528 12.6629 29.5984L12.6928 29.6006C13.3234 29.6471 13.922 29.6912 14.5088 29.7076C15.7501 29.7422 16.6286 29.6352 17.2037 29.3651C17.5535 29.2007 17.8588 28.8948 19.222 27.1799L21.2521 24.626L8.78614 16.8021C8.04346 16.3359 7.07622 15.5204 6.92636 14.1986C6.77627 12.8747 7.5407 11.8788 8.12368 11.2958C9.12861 10.2908 10.2347 9.512 11.5824 9.13834C12.9272 8.76549 14.2955 8.85622 15.7198 9.20375L27.9589 12.1901C29.7936 12.6377 30.5029 12.7509 31.2063 12.325C31.8354 11.9442 32.3705 11.3135 33.0957 10.3339C33.1652 10.2401 33.2372 10.1417 33.3118 10.0398C33.9315 9.19379 34.7325 8.10014 35.7657 7.26529ZM44.2226 9.00524C41.5867 8.96829 39.8349 9.11991 38.2796 10.3766C37.6752 10.8649 37.1898 11.5227 36.5121 12.4412C36.4468 12.5296 36.3798 12.6205 36.3107 12.7138C35.603 13.6699 34.658 14.9113 33.2779 15.7468C31.0609 17.089 28.7531 16.5115 27.2911 16.1457C27.1938 16.1213 27.1002 16.0979 27.0107 16.0761L14.7716 13.0897C13.757 12.8422 13.1242 12.8618 12.6512 12.9929C12.285 13.0944 11.8836 13.2991 11.3929 13.7156L25.2721 22.4264C25.754 22.7289 26.0843 23.2224 26.1803 23.7833C26.2762 24.3442 26.1286 24.9194 25.7745 25.3649L22.3533 29.6689C22.2832 29.7571 22.2138 29.8447 22.145 29.9316C21.1164 31.2301 20.2128 32.3709 18.9044 32.9855C17.4352 33.6757 15.7564 33.744 14.3972 33.706C13.7176 33.6871 13.0393 33.637 12.4341 33.5924L12.369 33.5876C11.7256 33.5402 11.1788 33.5014 10.6947 33.4946C10.6534 33.494 10.4838 33.5072 10.212 33.589C10.0343 33.6424 9.84962 33.7142 9.67399 33.7995L16.0786 36.6172C16.1259 36.638 16.174 36.659 16.2228 36.6803C16.8444 36.9517 17.586 37.2755 18.1553 37.8449C18.7247 38.4143 19.0485 39.1559 19.32 39.7775C19.3413 39.8263 19.3623 39.8744 19.3831 39.9216L22.2008 46.3263C22.2861 46.1506 22.3579 45.966 22.4113 45.7883C22.493 45.5164 22.5063 45.3469 22.5057 45.3055C22.4989 44.8215 22.4601 44.2747 22.4127 43.6313L22.4079 43.5662C22.3632 42.961 22.3132 42.2827 22.2942 41.603C22.2563 40.2438 22.3246 38.565 23.0148 37.0958C23.6294 35.7875 24.7701 34.8839 26.0687 33.8553C26.1556 33.7865 26.2432 33.7171 26.3314 33.647L30.6353 30.2258C31.0808 29.8717 31.656 29.7241 32.2169 29.82C32.7779 29.9159 33.2714 30.2462 33.5739 30.7282L42.2847 44.6073C42.7012 44.1167 42.9058 43.7152 43.0073 43.3491C43.1385 42.876 43.1581 42.2433 42.9105 41.2286L39.9242 28.9896C39.9023 28.9 39.8789 28.8065 39.8546 28.7091C39.4887 27.2472 38.9112 24.9394 40.2534 22.7224C41.089 21.3423 42.3304 20.3973 43.2865 19.6896C43.3798 19.6205 43.4707 19.5534 43.5591 19.4882C44.4775 18.8104 45.1353 18.325 45.6237 17.7206L47.1793 18.9776L45.6237 17.7206C46.8803 16.1653 47.032 14.4136 46.995 11.7777C46.9734 10.234 46.9387 10.001 46.8885 9.87169C46.7541 9.52497 46.4753 9.24619 46.1286 9.11173L46.8496 7.25241L46.1286 9.11173C45.9993 9.06159 45.7662 9.02688 44.2226 9.00524ZM22.6444 47.3218C22.6444 47.3219 22.6432 47.3204 22.6409 47.317C22.6432 47.32 22.6444 47.3217 22.6444 47.3218ZM8.67848 33.3559C8.67855 33.3559 8.68021 33.357 8.68324 33.3593C8.67993 33.3571 8.67841 33.3559 8.67848 33.3559ZM8.95806 34.3153C8.95755 34.3162 8.95727 34.3167 8.95726 34.3167L8.95806 34.3153Z"
				fill="#4357C8"
			/>
		</g>
	</g>
</svg>
