<svg
	width="56"
	height="56"
	viewBox="0 0 56 56"
	fill="none"
	xmlns="http://www.w3.org/2000/svg"
>
	<g id="cil:child">
		<path
			id="Vector"
			d="M46.527 21.8788C45.2344 18.843 43.2163 16.1709 40.6498 14.0971C38.0834 12.0233 35.0471 10.6112 31.8076 9.98474L34.734 5.30251L31.766 3.44751L27.9045 9.62589C23.9712 9.64413 20.1293 10.8143 16.8537 12.9919C13.578 15.1695 11.0121 18.2591 9.47298 21.8788C7.41132 21.918 5.44733 22.7645 4.00318 24.2364C2.55903 25.7083 1.75 27.688 1.75 29.75C1.75 31.812 2.55903 33.7918 4.00318 35.2636C5.44733 36.7355 7.41132 37.582 9.47298 37.6212C11.0187 41.2558 13.5993 44.3556 16.8936 46.5344C20.1879 48.7133 24.0503 49.875 28 49.875C31.9497 49.875 35.8121 48.7133 39.1064 46.5344C42.4007 44.3556 44.9813 41.2558 46.527 37.6212C48.5887 37.582 50.5527 36.7355 51.9968 35.2636C53.441 33.7918 54.25 31.812 54.25 29.75C54.25 27.688 53.441 25.7083 51.9968 24.2364C50.5527 22.7645 48.5887 21.918 46.527 21.8788ZM49.4968 32.8136C48.6963 33.6323 47.6054 34.1024 46.4605 34.1218L44.1937 34.1649L43.3064 36.2512C42.0296 39.2542 39.8977 41.8154 37.176 43.6157C34.4544 45.416 31.2633 46.3759 28.0001 46.3759C24.7369 46.3759 21.5457 45.416 18.8241 43.6157C16.1024 41.8154 13.9705 39.2542 12.6937 36.2512L11.8063 34.1649L9.53948 34.1218C8.39416 34.1004 7.303 33.6304 6.50061 32.8128C5.69823 31.9953 5.2487 30.8955 5.2487 29.75C5.2487 28.6045 5.69823 27.5047 6.50061 26.6872C7.303 25.8696 8.39416 25.3996 9.53948 25.3782L11.8063 25.3351L12.6937 23.2489C13.9705 20.2458 16.1025 17.6847 18.8241 15.8845C21.5458 14.0842 24.7369 13.1243 28.0001 13.1243C31.2632 13.1243 34.4543 14.0842 37.176 15.8845C39.8976 17.6847 42.0296 20.2458 43.3064 23.2489L44.1937 25.3351L46.4605 25.3782C47.3148 25.3943 48.1456 25.6604 48.8502 26.1435C49.5549 26.6267 50.1026 27.3057 50.4256 28.0967C50.7486 28.8877 50.8328 29.756 50.6677 30.5943C50.5026 31.4326 50.0956 32.2041 49.4968 32.8136Z"
			fill="#BD00C1"
		/>
		<path
			id="Vector_2"
			d="M18.375 25.375H22.75V29.75H18.375V25.375ZM33.25 25.375H37.625V29.75H33.25V25.375ZM28 42C29.1491 42 30.2869 41.7737 31.3485 41.3339C32.4101 40.8942 33.3747 40.2497 34.1872 39.4372C34.9997 38.6247 35.6442 37.6601 36.0839 36.5985C36.5237 35.5369 36.75 34.3991 36.75 33.25H19.25C19.25 34.3991 19.4763 35.5369 19.9161 36.5985C20.3558 37.6601 21.0003 38.6247 21.8128 39.4372C23.4538 41.0781 25.6794 42 28 42Z"
			fill="#BD00C1"
		/>
	</g>
</svg>
