<svg
	width="52"
	height="42"
	viewBox="0 0 52 42"
	fill="none"
	xmlns="http://www.w3.org/2000/svg"
>
	<g id="elements">
		<path
			id="Vector"
			d="M2.66699 16.3333L14.3337 2.33331M14.3337 2.33331L26.9668 14.9665C27.6412 15.6409 27.9784 15.9781 28.4072 16.1557C28.836 16.3333 29.3129 16.3333 30.2667 16.3333H49.3337L40.4656 5.69159C39.0894 4.04018 38.4013 3.21448 37.4606 2.7739C36.52 2.33331 35.4451 2.33331 33.2955 2.33331H14.3337Z"
			stroke="#4EA005"
			stroke-width="4"
			stroke-linecap="round"
			stroke-linejoin="round"
		/>
		<path
			id="Vector 5808"
			d="M23.6667 11.6666V39.6666H5V13.6666"
			stroke="#4EA005"
			stroke-width="4"
			stroke-linecap="round"
			stroke-linejoin="round"
		/>
		<path
			id="Vector 5809"
			d="M23.667 39.6666H47.0003V13.9999"
			stroke="#4EA005"
			stroke-width="4"
			stroke-linecap="round"
			stroke-linejoin="round"
		/>
		<path
			id="Vector 5810"
			d="M7.33398 10.5L7.33398 2.33331"
			stroke="#4EA005"
			stroke-width="4"
			stroke-linecap="round"
			stroke-linejoin="round"
		/>
		<path
			id="Vector_2"
			d="M14.352 20.9999L14.3311 20.9999"
			stroke="#4EA005"
			stroke-width="4"
			stroke-linecap="round"
			stroke-linejoin="round"
		/>
		<path
			id="Vector 5811"
			d="M14.334 39.6666L14.334 30.3333"
			stroke="#4EA005"
			stroke-width="4"
			stroke-linecap="round"
			stroke-linejoin="round"
		/>
		<path
			id="Vector 5812"
			d="M33.0003 25.6666L37.667 25.6666"
			stroke="#4EA005"
			stroke-width="4"
			stroke-linecap="round"
			stroke-linejoin="round"
		/>
	</g>
</svg>
