<svg
	width="57"
	height="44"
	viewBox="0 0 57 44"
	fill="none"
	xmlns="http://www.w3.org/2000/svg"
>
	<g id="elements">
		<circle
			id="Ellipse 1648"
			cx="48.1875"
			cy="35.3125"
			r="6.5625"
			stroke="#DB8300"
			stroke-width="4"
		/>
		<path
			id="Ellipse 1650"
			d="M34.8421 39.25C34.1397 37.6423 33.75 35.8666 33.75 34C33.75 26.7513 39.6263 20.875 46.875 20.875C47.774 20.875 48.6518 20.9654 49.5 21.1375"
			stroke="#DB8300"
			stroke-width="4"
			stroke-linecap="round"
		/>
		<circle
			id="Ellipse 1649"
			cx="8.8125"
			cy="35.3125"
			r="6.5625"
			stroke="#DB8300"
			stroke-width="4"
		/>
		<path
			id="Vector"
			d="M13.8794 17.2782H18.4111C19.6069 17.2782 20.7669 16.87 21.6991 16.1211L26.4978 12.2661C26.9639 11.8916 27.5439 11.6875 28.1418 11.6875H36.375L29.2462 24.757C28.7862 25.6003 27.9023 26.125 26.9417 26.125H21.9375M13.8794 17.2782H7.5M13.8794 17.2782L21.9375 26.125M21.9375 26.125L15.375 34"
			stroke="#DB8300"
			stroke-width="4"
			stroke-linecap="round"
			stroke-linejoin="round"
		/>
		<path
			id="Vector 5071"
			d="M41.625 20.875L33.7297 7.05828C32.6668 5.19809 32.1353 4.26799 31.3442 3.63945C30.9446 3.32197 30.5008 3.06446 30.0269 2.87503C29.0887 2.5 28.0175 2.5 25.875 2.5"
			stroke="#DB8300"
			stroke-width="4"
			stroke-linecap="round"
			stroke-linejoin="round"
		/>
	</g>
</svg>
