<svg
	width="24"
	height="24"
	viewBox="0 0 24 24"
	fill="none" xmlns="http://www.w3.org/2000/svg"
>
	<g clip-path="url(#clip0_740_14792)">
		<path
			d="M12 24C18.6274 24 24 18.6274 24 12C24 5.37258 18.6274 0 12 0C5.37258 0 0 5.37258 0 12C0 18.6274 5.37258 24 12 24Z"
			fill="#6EBF43"
		/>
		<path
			d="M9.73345 11.9512C9.70008 11.9792 9.6601 11.996 9.61832 11.9994C9.57653 12.0028 9.53475 11.9928 9.49802 11.9704C7.7035 10.8759 5.76423 11.4342 5.34323 11.524C5.32981 11.5272 5.31611 11.5287 5.30239 11.5287C5.26221 11.5288 5.22283 11.5164 5.18873 11.4928C5.15463 11.4693 5.12721 11.4356 5.1096 11.3956C5.05615 11.2732 5.12462 11.1594 5.22071 11.0735C5.5288 10.7974 7.53894 8.93243 9.76108 11.5965C9.78141 11.6212 9.79691 11.6503 9.8066 11.682C9.81628 11.7137 9.81994 11.7472 9.81734 11.7805C9.81475 11.8139 9.80596 11.8462 9.79152 11.8756C9.77708 11.9049 9.7573 11.9307 9.73345 11.9512Z"
			fill="black"
		/>
		<path
			d="M14.2731 11.9512C14.309 11.9792 14.352 11.996 14.397 11.9994C14.442 12.0028 14.487 11.9928 14.5266 11.9704C16.4593 10.8759 18.5478 11.4342 19.0006 11.524C19.0153 11.5272 19.0302 11.5287 19.0452 11.5287C19.0885 11.5288 19.1309 11.5164 19.1676 11.4928C19.2043 11.4693 19.2339 11.4356 19.2528 11.3956C19.3098 11.2732 19.2367 11.1594 19.1332 11.0735C18.8007 10.7974 16.6365 8.93243 14.2433 11.5965C14.2214 11.6212 14.2047 11.6503 14.1943 11.682C14.1838 11.7137 14.1799 11.7472 14.1827 11.7805C14.1855 11.8139 14.195 11.8462 14.2105 11.8756C14.2261 11.9049 14.2474 11.9307 14.2731 11.9512Z"
			fill="black"
		/>
		<path
			d="M7.63635 16C7.63635 16 8.34509 19.2727 12 19.2727C15.6237 19.2727 16.3636 16 16.3636 16H7.63635Z"
			fill="black"
		/>
	</g>
	<defs>
		<clipPath id="clip0_740_14792">
			<rect
				width="24"
				height="24"
				fill="white"
			/>
		</clipPath>
	</defs>
</svg>
