<svg
	width="24"
	height="24"
	viewBox="0 0 24 24"
	fill="none"
	xmlns="http://www.w3.org/2000/svg"
>
	<g clip-path="url(#clip0_740_14763)">
		<path
			d="M12 24C18.6274 24 24 18.6274 24 12C24 5.37258 18.6274 0 12 0C5.37258 0 0 5.37258 0 12C0 18.6274 5.37258 24 12 24Z"
			fill="#CC2334"
		/>
		<path
			d="M5.31799 8.0001C5.26427 7.99841 5.21182 8.01767 5.17048 8.05426C5.12915 8.09086 5.10178 8.14227 5.09351 8.19884C5.08524 8.25541 5.09664 8.31325 5.12557 8.3615C5.15451 8.40975 5.19898 8.44509 5.25064 8.46088C5.57256 8.5504 6.30477 8.81304 6.89796 9.46075C6.63241 9.65416 6.41829 9.91738 6.27635 10.2249C6.13441 10.5324 6.06948 10.8738 6.08785 11.2159C6.10622 11.558 6.20727 11.8893 6.38119 12.1775C6.55512 12.4658 6.79602 12.7013 7.08054 12.8612C7.36506 13.0211 7.68353 13.0999 8.00507 13.0901C8.32661 13.0803 8.64031 12.9821 8.91574 12.805C9.19118 12.628 9.41899 12.3782 9.5771 12.0798C9.73521 11.7813 9.81825 11.4444 9.81815 11.1018C9.82001 8.44442 6.27079 8.05605 5.31799 8.0001Z"
			fill="black"
		/>
		<path
			d="M18.682 8C17.731 8.05594 14.1818 8.44355 14.1818 11.1022C14.1817 11.4448 14.2648 11.7816 14.4229 12.08C14.581 12.3784 14.8088 12.6281 15.0842 12.8051C15.3597 12.9821 15.6734 13.0803 15.9949 13.0901C16.3164 13.0999 16.6349 13.0211 16.9194 12.8613C17.204 12.7014 17.4449 12.466 17.6188 12.1778C17.7927 11.8896 17.8938 11.5584 17.9121 11.2164C17.9305 10.8743 17.8656 10.533 17.7236 10.2256C17.5817 9.91814 17.3676 9.65498 17.102 9.46162C17.6952 8.81406 18.4274 8.55148 18.7493 8.46198C18.801 8.4462 18.8455 8.41087 18.8744 8.36263C18.9033 8.31439 18.9147 8.25656 18.9065 8.20001C18.8982 8.14345 18.8708 8.09205 18.8295 8.05547C18.7882 8.01888 18.7357 7.99963 18.682 8.00132V8Z"
			fill="black"
		/>
		<path
			d="M15.0984 18.1819C15.0073 18.1819 14.9177 18.161 14.838 18.1213C14.7583 18.0816 14.6912 18.0242 14.6428 17.9547C14.6018 17.8979 13.6641 16.6061 11.8189 16.6061C10.011 16.6061 9.02973 17.9076 8.98871 17.9627C8.94993 18.0159 8.89988 18.0617 8.84142 18.0975C8.78296 18.1333 8.71724 18.1584 8.64801 18.1714C8.57877 18.1843 8.50739 18.1849 8.43792 18.173C8.36845 18.1611 8.30226 18.137 8.24314 18.1021C8.18401 18.0672 8.1331 18.0222 8.09331 17.9695C8.05353 17.9169 8.02565 17.8577 8.01126 17.7954C7.99688 17.7331 7.99627 17.6688 8.00947 17.6063C8.02267 17.5438 8.04943 17.4842 8.08821 17.431C8.14122 17.3577 9.41719 15.6365 11.8189 15.6365C14.2756 15.6365 15.5036 17.3656 15.5547 17.4389C15.6055 17.5123 15.6337 17.5966 15.6362 17.683C15.6387 17.7695 15.6155 17.855 15.5689 17.9306C15.5224 18.0063 15.4542 18.0694 15.3715 18.1134C15.2888 18.1574 15.1945 18.1806 15.0984 18.1808V18.1819Z"
			fill="black"
		/>
	</g>
	<defs>
		<clipPath id="clip0_740_14763">
			<rect
				width="24"
				height="24"
				fill="white"
			/>
		</clipPath>
	</defs>
</svg>
