<svg
	width="24"
	height="24"
	viewBox="0 0 24 24"
	fill="none"
	xmlns="http://www.w3.org/2000/svg"
>
	<g clip-path="url(#clip0_740_14786)">
		<path
			d="M12 24C18.6274 24 24 18.6274 24 12C24 5.37258 18.6274 0 12 0C5.37258 0 0 5.37258 0 12C0 18.6274 5.37258 24 12 24Z"
			fill="#EFB025"
		/>
		<path
			d="M8.18183 13.0908C9.2864 13.0908 10.1818 12.1954 10.1818 11.0908C10.1818 9.98625 9.2864 9.09082 8.18183 9.09082C7.07726 9.09082 6.18182 9.98625 6.18182 11.0908C6.18182 12.1954 7.07726 13.0908 8.18183 13.0908Z"
			fill="black"
		/>
		<path
			d="M16.1818 13.0908C17.2864 13.0908 18.1818 12.1954 18.1818 11.0908C18.1818 9.98625 17.2864 9.09082 16.1818 9.09082C15.0773 9.09082 14.1818 9.98625 14.1818 11.0908C14.1818 12.1954 15.0773 13.0908 16.1818 13.0908Z"
			fill="black"
		/>
		<path
			d="M12.1789 18.1819C9.72001 18.1819 8.49026 16.4525 8.4391 16.3786C8.36734 16.2697 8.34569 16.1399 8.37878 16.0169C8.41186 15.8938 8.49706 15.7873 8.6162 15.72C8.73534 15.6527 8.879 15.6299 9.01653 15.6565C9.15407 15.6832 9.27459 15.7571 9.35241 15.8626C9.39283 15.9194 10.332 17.2118 12.1789 17.2118C14.0055 17.2118 14.9997 15.8699 15.0098 15.8563C15.0485 15.803 15.0984 15.757 15.1569 15.7211C15.2153 15.6852 15.281 15.6599 15.3503 15.6468C15.4196 15.6337 15.491 15.6331 15.5606 15.6448C15.6301 15.6566 15.6964 15.6805 15.7557 15.7154C15.815 15.7502 15.866 15.7952 15.906 15.8477C15.9459 15.9003 15.974 15.9594 15.9885 16.0218C16.0031 16.0841 16.0038 16.1484 15.9907 16.211C15.9777 16.2736 15.951 16.3332 15.9123 16.3866C15.8593 16.4599 14.5828 18.1819 12.1789 18.1819Z"
			fill="black"
		/>
	</g>
	<defs>
		<clipPath id="clip0_740_14786">
			<rect
				width="24"
				height="24"
				fill="white"
			/>
		</clipPath>
	</defs>
</svg>
