<svg
	width="24"
	height="24"
	viewBox="0 0 24 24"
	fill="none"
	xmlns="http://www.w3.org/2000/svg"
>
	<g clip-path="url(#clip0_740_14765)">
		<path
			d="M12 24C18.6274 24 24 18.6274 24 12C24 5.37258 18.6274 0 12 0C5.37258 0 0 5.37258 0 12C0 18.6274 5.37258 24 12 24Z"
			fill="#EF4B3F"
		/>
		<path
			d="M7.81818 13.0908C8.92275 13.0908 9.81818 12.1954 9.81818 11.0908C9.81818 9.98625 8.92275 9.09082 7.81818 9.09082C6.71361 9.09082 5.81818 9.98625 5.81818 11.0908C5.81818 12.1954 6.71361 13.0908 7.81818 13.0908Z"
			fill="black"
		/>
		<path
			d="M15.8182 13.0908C16.9227 13.0908 17.8182 12.1954 17.8182 11.0908C17.8182 9.98625 16.9227 9.09082 15.8182 9.09082C14.7136 9.09082 13.8182 9.98625 13.8182 11.0908C13.8182 12.1954 14.7136 13.0908 15.8182 13.0908Z"
			fill="black"
		/>
		<path
			d="M15.0979 18.1819C15.0067 18.1818 14.9169 18.161 14.837 18.1212C14.7572 18.0815 14.6898 18.0242 14.6413 17.9547C14.6008 17.8979 13.6616 16.6061 11.8146 16.6061C9.9879 16.6061 8.99369 17.9473 8.98358 17.961C8.90374 18.0651 8.78179 18.1371 8.64375 18.1616C8.50571 18.1861 8.36251 18.1611 8.24467 18.0919C8.12684 18.0228 8.0437 17.915 8.013 17.7915C7.9823 17.668 8.00646 17.5387 8.08033 17.431C8.13402 17.3577 9.41058 15.6365 11.8146 15.6365C14.2736 15.6365 15.5035 17.3656 15.5546 17.4389C15.6055 17.5123 15.6337 17.5966 15.6362 17.683C15.6387 17.7695 15.6154 17.855 15.5689 17.9306C15.5223 18.0063 15.4541 18.0694 15.3713 18.1134C15.2885 18.1574 15.1941 18.1806 15.0979 18.1808V18.1819Z"
			fill="black"
		/>
	</g>
	<defs>
		<clipPath id="clip0_740_14765">
			<rect
				width="24"
				height="24"
				fill="white"
			/>
		</clipPath>
	</defs>
</svg>
