<svg
	width="24"
	height="24"
	viewBox="0 0 24 24"
	fill="none"
	xmlns="http://www.w3.org/2000/svg"
>
	<g clip-path="url(#clip0_740_14780)">
		<path
			d="M12.1818 24C18.9097 24 24.3636 18.6274 24.3636 12C24.3636 5.37258 18.9097 0 12.1818 0C5.45399 0 0 5.37258 0 12C0 18.6274 5.45399 24 12.1818 24Z"
			fill="#EF8035"
		/>
		<path
			d="M8.18183 13.8182C9.2864 13.8182 10.1818 13.0042 10.1818 12.0001C10.1818 10.9959 9.2864 10.1819 8.18183 10.1819C7.07726 10.1819 6.18182 10.9959 6.18182 12.0001C6.18182 13.0042 7.07726 13.8182 8.18183 13.8182Z"
			fill="black"
		/>
		<path
			d="M16.1818 13.8182C17.2864 13.8182 18.1818 13.0042 18.1818 12.0001C18.1818 10.9959 17.2864 10.1819 16.1818 10.1819C15.0773 10.1819 14.1818 10.9959 14.1818 12.0001C14.1818 13.0042 15.0773 13.8182 16.1818 13.8182Z"
			fill="black"
		/>
		<path
			d="M15.4457 18.1816H8.91801C8.84611 18.1833 8.77446 18.1752 8.70731 18.1576C8.64017 18.1401 8.57891 18.1136 8.52718 18.0797C8.47545 18.0458 8.43431 18.0052 8.40622 17.9603C8.37812 17.9153 8.36365 17.867 8.36365 17.8182C8.36365 17.7694 8.37812 17.7211 8.40622 17.6762C8.43431 17.6313 8.47545 17.5906 8.52718 17.5567C8.57891 17.5228 8.64017 17.4963 8.70731 17.4788C8.77446 17.4613 8.84611 17.4531 8.91801 17.4548H15.4457C15.5175 17.4531 15.5892 17.4613 15.6563 17.4788C15.7235 17.4963 15.7847 17.5228 15.8365 17.5567C15.8882 17.5906 15.9293 17.6313 15.9574 17.6762C15.9855 17.7211 16 17.7694 16 17.8182C16 17.867 15.9855 17.9153 15.9574 17.9603C15.9293 18.0052 15.8882 18.0458 15.8365 18.0797C15.7847 18.1136 15.7235 18.1401 15.6563 18.1576C15.5892 18.1752 15.5175 18.1833 15.4457 18.1816Z"
			fill="black"
		/>
	</g>
	<defs>
		<clipPath id="clip0_740_14780">
			<rect
				width="24"
				height="24"
				fill="white"
			/>
		</clipPath>
	</defs>
</svg>
