<svg
	width="14"
	height="18"
	viewBox="0 0 14 18"
	fill="none"
	xmlns="http://www.w3.org/2000/svg"
>
	<g id="elements">
		<path
			id="Vector"
			d="M1 16.25C0.585786 16.25 0.25 16.5858 0.25 17C0.25 17.4142 0.585786 17.75 1 17.75V16.25ZM13 17.75C13.4142 17.75 13.75 17.4142 13.75 17C13.75 16.5858 13.4142 16.25 13 16.25V17.75ZM1 17.75H13V16.25H1V17.75Z"
			fill="#141B34"
		/>
		<path
			id="Vector 7066"
			d="M7 8.87258H10.0557C10.4298 8.87258 10.6358 9.35493 10.3989 9.67619L7.34326 13.8195C7.16581 14.0602 6.83419 14.0602 6.65675 13.8195L3.60109 9.67619C3.36416 9.35493 3.57019 8.87258 3.94435 8.87258H7ZM7 8.87258V1"
			stroke="#141B34"
			stroke-width="1.5"
			stroke-linecap="round"
			stroke-linejoin="round"
		/>
	</g>
</svg>
