<svg
	width="14"
	height="18"
	viewBox="0 0 14 18"
	fill="none"
	xmlns="http://www.w3.org/2000/svg"
>
	<g id="elements">
		<path
			id="Vector"
			d="M13 1.75C13.4142 1.75 13.75 1.41421 13.75 1C13.75 0.585786 13.4142 0.25 13 0.25L13 1.75ZM1 0.249999C0.585787 0.249999 0.25 0.585785 0.25 0.999999C0.25 1.41421 0.585787 1.75 1 1.75L1 0.249999ZM13 0.25L1 0.249999L1 1.75L13 1.75L13 0.25Z"
			fill="#141B34"
		/>
		<path
			id="Vector 7066"
			d="M7 9.12742H10.0557C10.4298 9.12742 10.6358 8.64507 10.3989 8.32381L7.34326 4.18046C7.16581 3.93985 6.83419 3.93985 6.65675 4.18046L3.60109 8.32381C3.36416 8.64507 3.57019 9.12742 3.94435 9.12742H7ZM7 9.12742V17"
			stroke="#141B34"
			stroke-width="1.5"
			stroke-linecap="round"
			stroke-linejoin="round"
		/>
	</g>
</svg>
