<svg
	width="22"
	height="20"
	viewBox="0 0 22 20"
	fill="none"
	xmlns="http://www.w3.org/2000/svg"
>
	<g id="elements">
		<path
			id="Vector"
			d="M18.5 6.5C17 3 13.9924 1 10.4046 1C5.21058 1 1 5.24151 1 10.4737C1 13.8912 2.79635 16.886 5.48977 18.5523C6.06928 18.9108 6.54664 19 7.22657 19L13.763 19C15.1727 19 16.3155 17.8807 16.3155 16.5C16.3155 15.1193 15.1727 14 13.763 14C13.3687 14 12.6311 14.1485 12.3534 13.8267C12.2038 13.6533 12.2359 13.4366 12.3 13.0031C12.7388 10.0363 15.2376 9.5 18.4564 9.5C19.2168 9.5 19.9772 8.65497 20.5235 7.86188C20.9052 7.30765 21.096 7.03053 20.952 6.76527C20.808 6.5 20.4444 6.5 19.7171 6.5H18.5ZM18.5 6.5L14.0693 6.5"
			stroke="#141B34"
			stroke-width="1.5"
			stroke-linecap="round"
			stroke-linejoin="round"
		/>
		<path
			id="Vector_2"
			d="M14.0078 16.5L13.9988 16.5"
			stroke="#141B34"
			stroke-width="1.5"
			stroke-linecap="round"
			stroke-linejoin="round"
		/>
	</g>
</svg>
