<svg
	width="22"
	height="20"
	viewBox="0 0 22 20"
	fill="none"
	xmlns="http://www.w3.org/2000/svg"
>
	<g id="elements">
		<path
			id="Vector"
			d="M5 18.0001L4 19.0001M17 18.0001L18 19.0001"
			stroke="#1E1E1E"
			stroke-width="1.5"
			stroke-linecap="round"
		/>
		<path
			id="Rectangle 17648"
			d="M2 10.0001V11.0001C2 14.3 2 15.9499 3.02513 16.975C4.05025 18.0001 5.70017 18.0001 9 18.0001H13C16.2998 18.0001 17.9497 18.0001 18.9749 16.975C20 15.9499 20 14.3 20 11.0001V10.0001"
			stroke="#1E1E1E"
			stroke-width="1.5"
			stroke-linecap="round"
			stroke-linejoin="round"
		/>
		<path
			id="Vector 6187"
			d="M1 10.0001H21"
			stroke="#1E1E1E"
			stroke-width="1.5"
			stroke-linecap="round"
		/>
		<path
			id="Vector 6188"
			d="M3 10.0001V3.52352C3 2.12989 4.12977 1.00012 5.5234 1.00012C6.64166 1.00012 7.62654 1.7361 7.94339 2.80853L8 3.00012"
			stroke="#1E1E1E"
			stroke-width="1.5"
			stroke-linecap="round"
		/>
		<path
			id="Vector 6189"
			d="M7 4.00012L9.5 2.00012"
			stroke="#1E1E1E"
			stroke-width="1.5"
			stroke-linecap="round"
		/>
	</g>
</svg>
