<svg
	width="22"
	height="20"
	viewBox="0 0 22 20"
	fill="none" xmlns="http://www.w3.org/2000/svg"
>
	<path
		d="M21 15.5001H1"
		stroke="#1E1E1E"
		stroke-width="1.5"
		stroke-linecap="round"
		stroke-linejoin="round"
	/>
	<path
		d="M21 19.0001V14.0001C21 12.1145 21 11.1717 20.4142 10.5859C19.8284 10.0001 18.8856 10.0001 17 10.0001H5C3.11438 10.0001 2.17157 10.0001 1.58579 10.5859C1 11.1717 1 12.1145 1 14.0001V19.0001"
		stroke="#1E1E1E"
		stroke-width="1.5"
		stroke-linecap="round"
		stroke-linejoin="round"
	/>
	<path
		d="M15 10.0001V8.61793C15 8.11042 14.9085 7.94067 14.4396 7.74062C13.4631 7.32401 12.2778 7.00012 11 7.00012C9.72215 7.00012 8.53688 7.32401 7.5604 7.74062C7.09154 7.94067 7 8.11042 7 8.61793L7 10.0001"
		stroke="#1E1E1E"
		stroke-width="1.5"
		stroke-linecap="round"
	/>
	<path
		d="M2 10.0001V7.00012C2 5.58591 2 4.8788 2.43934 4.43946C2.87868 4.00012 3.58579 4.00012 5 4.00012C5.27475 4.00012 5.65685 4.07284 5.90282 3.94025C6.0139 3.88037 6.11349 3.72901 6.31269 3.42628C7.26921 1.97259 9.22461 1.00012 11 1.00012C12.7754 1.00012 14.7308 1.97259 15.6873 3.42628C15.8865 3.72901 15.9861 3.88037 16.0972 3.94025C16.3432 4.07284 16.7252 4.00012 17 4.00012C18.4142 4.00012 19.1213 4.00012 19.5607 4.43946C20 4.8788 20 5.58591 20 7.00012V10.0001"
		stroke="#1E1E1E"
		stroke-width="1.5"
	/>
</svg>
