<svg
	width="17"
	height="17"
	viewBox="0 0 17 17"
	fill="none"
	xmlns="http://www.w3.org/2000/svg"
>
	<g id="Group 7">
		<path
			id="Union"
			fill-rule="evenodd"
			clip-rule="evenodd"
			d="M1.35355 0.646447C1.15829 0.451184 0.841709 0.451184 0.646447 0.646447C0.451184 0.841709 0.451184 1.15829 0.646447 1.35355L7.79094 8.49804L0.646447 15.6425C0.451184 15.8378 0.451184 16.1544 0.646447 16.3496C0.841709 16.5449 1.15829 16.5449 1.35355 16.3496L8.49804 9.20515L15.6425 16.3496C15.8378 16.5449 16.1543 16.5449 16.3496 16.3496C16.5449 16.1543 16.5449 15.8378 16.3496 15.6425L9.20515 8.49804L16.3496 1.35359C16.5449 1.15833 16.5449 0.841749 16.3496 0.646487C16.1543 0.451226 15.8378 0.451226 15.6425 0.646488L8.49804 7.79094L1.35355 0.646447Z"
			fill="#A2A2A2"
		/>
	</g>
</svg>
