<svg
	width="17"
	height="17"
	viewBox="0 0 17 17"
	fill="none"
	xmlns="http://www.w3.org/2000/svg"
>
	<g id="Currency">
		<path
			id="Vector"
			d="M3.52378 2.65628C3.48 2.65572 3.43654 2.66382 3.3959 2.68012C3.35527 2.69642 3.31826 2.7206 3.287 2.75126C3.25575 2.78193 3.23086 2.81847 3.21379 2.85879C3.19671 2.8991 3.18778 2.9424 3.1875 2.98618V4.445C3.1875 4.62987 3.33891 4.78128 3.52378 4.78128H13.4826C13.5264 4.781 13.5697 4.77207 13.61 4.75499C13.6503 4.73791 13.6868 4.71303 13.7175 4.68178C13.7482 4.65052 13.7724 4.61351 13.7887 4.57287C13.805 4.53224 13.8131 4.48878 13.8125 4.445V2.98618C13.8129 2.94276 13.8046 2.8997 13.7881 2.85952C13.7717 2.81933 13.7474 2.78282 13.7167 2.75212C13.686 2.72141 13.6494 2.69712 13.6093 2.68067C13.5691 2.66421 13.526 2.65592 13.4826 2.65628H3.52378ZM3.52378 6.37503C3.43565 6.37487 3.35099 6.40938 3.28807 6.4711C3.22516 6.53283 3.18903 6.61681 3.1875 6.70493V8.16375C3.1875 8.34862 3.33891 8.50003 3.52378 8.50003H7.4375V14.5451C7.4375 14.7295 7.58306 14.875 7.76741 14.875H9.23259C9.27602 14.8754 9.31907 14.8671 9.35926 14.8506C9.39945 14.8342 9.43596 14.8099 9.46666 14.7792C9.49737 14.7485 9.52165 14.712 9.53811 14.6718C9.55456 14.6316 9.56285 14.5885 9.5625 14.5451V8.50003H13.4826C13.5264 8.49975 13.5697 8.49082 13.61 8.47374C13.6503 8.45666 13.6868 8.43178 13.7175 8.40053C13.7482 8.36927 13.7724 8.33226 13.7887 8.29162C13.805 8.25099 13.8131 8.20753 13.8125 8.16375V6.70493C13.8124 6.61748 13.7776 6.53365 13.7157 6.47181C13.6539 6.40997 13.57 6.37517 13.4826 6.37503H3.52378Z"
			fill="#1E1E1E"
		/>
	</g>
</svg>
