<svg
	xmlns="http://www.w3.org/2000/svg"
	width="32"
	height="32"
	viewBox="0 0 32 32"
	fill="none"
>
	<path
		d="M16 2C8.28133 2 2 8.28133 2 16C2 23.7187 8.28133 30 16 30C23.7187 30 30 23.7187 30 16C30 8.28133 23.7187 2 16 2ZM16 4.33333C22.4575 4.33333 27.6667 9.5425 27.6667 16C27.6695 18.793 26.668 21.4938 24.8449 23.6097C23.0218 25.7256 20.4987 27.1154 17.736 27.5255V19.402H21.0587L21.5802 16.0268H17.736V14.1835C17.736 12.7835 18.1968 11.5387 19.507 11.5387H21.6128V8.594C21.243 8.54383 20.4602 8.43533 18.9808 8.43533C15.8915 8.43533 14.0808 10.0663 14.0808 13.7833V16.0268H10.9052V19.402H14.0808V27.4963C11.3564 27.0479 8.88011 25.6454 7.09447 23.5394C5.30884 21.4334 4.33017 18.7611 4.33333 16C4.33333 9.5425 9.5425 4.33333 16 4.33333Z"
		fill="#1E1E1E"
	/>
</svg>