<svg
	width="20"
	height="22"
	viewBox="0 0 20 22"
	fill="none"
	xmlns="http://www.w3.org/2000/svg"
>
	<path
		d="M6.69128 1.1518C3.80039 0.363253 1 2.74887 1 6.00012C1 9.25138 3.80039 11.637 6.69128 10.8484C8.99789 10.2193 12.2043 8.58062 14.6244 8.80229C15.5008 8.88258 16.126 9.64648 16.9467 9.87083C18.0559 10.1741 18.4902 8.50014 18.7285 7.75309C19.0905 6.61783 19.0905 5.38242 18.7285 4.24715C18.4902 3.5001 18.0559 1.82619 16.9467 2.12941C16.126 2.35376 15.5008 3.11767 14.6244 3.19795C12.2043 3.41963 8.99789 1.78097 6.69128 1.1518Z"
		stroke="#1E1E1E"
		stroke-width="1.5"
		stroke-linecap="round"
		stroke-linejoin="round"
	/>
	<path
		d="M3.5 10.5001C4.87177 11.9096 4.77428 14.2677 4.8188 16.3761C4.8373 17.2519 5.50261 18.0001 6.34709 18.0001H7.5674C8.23744 18.0001 8.63971 16.4958 8.84647 16.0225C9.12154 15.3928 9.0041 14.6744 8.67574 14.0728C7.98228 12.8024 7.5 12.0001 8 10.5001"
		stroke="#1E1E1E"
		stroke-width="1.5"
		stroke-linecap="round"
		stroke-linejoin="round"
	/>
	<path
		d="M14.5 3.50012L14.8789 5.01954C15.0404 5.66685 15.0404 6.33339 14.8789 6.9807L14.5 8.50012"
		stroke="#1E1E1E"
		stroke-width="1.5"
		stroke-linecap="round"
		stroke-linejoin="round"
	/>
	<path
		d="M7 18.0001C7 18.932 7 19.3979 6.82601 19.7655C6.59402 20.2555 6.14906 20.6449 5.58899 20.8479C5.16894 21.0001 4.06501 21.0001 3 21.0001"
		stroke="#1E1E1E"
		stroke-width="1.5"
		stroke-linecap="round"
		stroke-linejoin="round"
	/>
</svg>
