<svg
	width="20"
	height="18"
	viewBox="0 0 20 18"
	fill="none"
	xmlns="http://www.w3.org/2000/svg"
>
	<g id="elements">
		<path
			id="Vector"
			d="M2.12572 12.3669L8.12842 8.99038C8.72335 8.65574 9.32522 8.50012 10 8.50012C10.6748 8.50012 11.2766 8.65574 11.8716 8.99038L17.8743 12.3669C18.5697 12.7581 19 13.4939 19 14.2917C19 15.5114 18.0113 16.5001 16.7916 16.5001H3.20841C1.98874 16.5001 1 15.5114 1 14.2917C1 13.4939 1.43034 12.7581 2.12572 12.3669Z"
			stroke="#1E1E1E"
			stroke-width="1.5"
			stroke-linecap="round"
			stroke-linejoin="round"
		/>
		<path
			id="Ellipse 1715"
			d="M8 3.40488C8 2.35291 8.89543 1.50012 10 1.50012C11.1046 1.50012 12 2.35291 12 3.40488C12 4.12465 11.5808 4.75118 10.9623 5.0751C10.473 5.33131 10 5.75736 10 6.30965V8.50012"
			stroke="#1E1E1E"
			stroke-width="1.5"
			stroke-linecap="round"
		/>
	</g>
</svg>
