<svg
	xmlns="http://www.w3.org/2000/svg"
	width="32"
	height="32"
	viewBox="0 0 32 32"
	fill="none"
>
	<path
		d="M10.3998 2.66667H21.5998C25.8665 2.66667 29.3332 6.13334 29.3332 10.4V21.6C29.3332 23.651 28.5184 25.618 27.0681 27.0683C25.6178 28.5186 23.6508 29.3333 21.5998 29.3333H10.3998C6.13317 29.3333 2.6665 25.8667 2.6665 21.6V10.4C2.6665 8.349 3.48126 6.38199 4.93154 4.93171C6.38183 3.48143 8.34883 2.66667 10.3998 2.66667ZM10.1332 5.33334C8.86013 5.33334 7.63923 5.83905 6.73906 6.73923C5.83888 7.6394 5.33317 8.8603 5.33317 10.1333V21.8667C5.33317 24.52 7.47984 26.6667 10.1332 26.6667H21.8665C23.1395 26.6667 24.3604 26.161 25.2606 25.2608C26.1608 24.3606 26.6665 23.1397 26.6665 21.8667V10.1333C26.6665 7.48 24.5198 5.33334 21.8665 5.33334H10.1332ZM22.9998 7.33334C23.4419 7.33334 23.8658 7.50893 24.1783 7.82149C24.4909 8.13405 24.6665 8.55798 24.6665 9C24.6665 9.44203 24.4909 9.86596 24.1783 10.1785C23.8658 10.4911 23.4419 10.6667 22.9998 10.6667C22.5578 10.6667 22.1339 10.4911 21.8213 10.1785C21.5088 9.86596 21.3332 9.44203 21.3332 9C21.3332 8.55798 21.5088 8.13405 21.8213 7.82149C22.1339 7.50893 22.5578 7.33334 22.9998 7.33334ZM15.9998 9.33334C17.7679 9.33334 19.4636 10.0357 20.7139 11.286C21.9641 12.5362 22.6665 14.2319 22.6665 16C22.6665 17.7681 21.9641 19.4638 20.7139 20.714C19.4636 21.9643 17.7679 22.6667 15.9998 22.6667C14.2317 22.6667 12.536 21.9643 11.2858 20.714C10.0355 19.4638 9.33317 17.7681 9.33317 16C9.33317 14.2319 10.0355 12.5362 11.2858 11.286C12.536 10.0357 14.2317 9.33334 15.9998 9.33334ZM15.9998 12C14.939 12 13.9216 12.4214 13.1714 13.1716C12.4213 13.9217 11.9998 14.9391 11.9998 16C11.9998 17.0609 12.4213 18.0783 13.1714 18.8284C13.9216 19.5786 14.939 20 15.9998 20C17.0607 20 18.0781 19.5786 18.8283 18.8284C19.5784 18.0783 19.9998 17.0609 19.9998 16C19.9998 14.9391 19.5784 13.9217 18.8283 13.1716C18.0781 12.4214 17.0607 12 15.9998 12Z"
		fill="#1E1E1E"
	/>
</svg>