<svg
	width="16"
	height="17"
	viewBox="0 0 16 17"
	fill="none"
	xmlns="http://www.w3.org/2000/svg"
>
	<g id="vuesax/bold/location">
		<path
			id="Vector"
			d="M13.7467 6.13329C13.0467 3.05329 10.3601 1.66663 8.00006 1.66663C8.00006 1.66663 8.00006 1.66663 7.9934 1.66663C5.64006 1.66663 2.94673 3.04663 2.24673 6.12663C1.46673 9.56663 3.5734 12.48 5.48006 14.3133C6.18673 14.9933 7.0934 15.3333 8.00006 15.3333C8.90673 15.3333 9.8134 14.9933 10.5134 14.3133C12.4201 12.48 14.5267 9.57329 13.7467 6.13329ZM8.00006 9.47329C6.84006 9.47329 5.90006 8.53329 5.90006 7.37329C5.90006 6.21329 6.84006 5.27329 8.00006 5.27329C9.16006 5.27329 10.1001 6.21329 10.1001 7.37329C10.1001 8.53329 9.16006 9.47329 8.00006 9.47329Z"
			fill="#A2A2A2"
		/>
	</g>
</svg>
