<svg
	width="18"
	height="22"
	viewBox="0 0 18 22"
	fill="none"
	xmlns="http://www.w3.org/2000/svg"
>
	<g id="elements">
		<path
			id="Ellipse 1592"
			d="M15 17C16.2447 17.4244 17 17.9819 17 18.5925C17 19.9221 13.4183 21 9 21C4.58172 21 1 19.9221 1 18.5925C1 17.9819 1.75527 17.4244 3 17"
			stroke="#141B34"
			stroke-width="1.5"
			stroke-linecap="round"
		/>
		<g id="Vector">
		<path
			d="M12 8.5C12 10.1569 10.6569 11.5 9 11.5C7.34315 11.5 6 10.1569 6 8.5C6 6.84315 7.34315 5.5 9 5.5C10.6569 5.5 12 6.84315 12 8.5Z"
			stroke="#141B34"
			stroke-width="1.5"
		/>
		<path
			d="M9 1C13.0588 1 16.5 4.42803 16.5 8.5869C16.5 12.812 13.0028 15.777 9.7725 17.7932C9.53709 17.9287 9.27087 18 9 18C8.72913 18 8.46291 17.9287 8.2275 17.7932C5.00325 15.7573 1.5 12.8266 1.5 8.5869C1.5 4.42803 4.9412 1 9 1Z"
			stroke="#141B34"
			stroke-width="1.5"
		/>
		</g>
	</g>
</svg>
