<svg
	width="22"
	height="22"
	viewBox="0 0 22 22"
	fill="none"
	xmlns="http://www.w3.org/2000/svg"
>
	<g id="elements">
		<path
			id="Vector"
			d="M17 10.0041C16.4166 8.91704 15.273 8.15775 13.9519 8.0993C12.477 8.03404 10.9788 8 9.32898 8C7.67911 8 6.18091 8.03404 4.70604 8.0993C2.95328 8.17685 1.51295 9.48808 1.27882 11.1618C1.12602 12.2541 1 13.3734 1 14.5134C1 15.6534 1.12602 16.7727 1.27882 17.865C1.51295 19.5387 2.95328 20.8499 4.70604 20.9275C5.42013 20.9591 6.26041 20.9834 7 21"
			stroke="#141B34"
			stroke-width="1.5"
			stroke-linecap="round"
		/>
		<path
			id="Vector 6659"
			d="M5 8V5.5C5 3.01472 7.01472 1 9.5 1C11.9853 1 14 3.01472 14 5.5V8"
			stroke="#141B34"
			stroke-width="1.5"
			stroke-linecap="round"
			stroke-linejoin="round"
		/>
		<path
			id="Vector_2" d="M20.2046 14.1045L19.6242 14.6956V14.6956L20.2046 14.1045ZM20.4196 15.4767C20.7461 15.7972 21.2706 15.7924 21.5911 15.466C21.9116 15.1395 21.9068 14.615 21.5804 14.2945L20.4196 15.4767ZM17.0228 14.1045L16.4424 13.5134V13.5134L17.0228 14.1045ZM17.2379 17.0387C17.5643 17.3593 18.0888 17.3545 18.4094 17.028C18.7299 16.7016 18.7251 16.1771 18.3987 15.8565L17.2379 17.0387ZM13.2603 19.7619C12.7039 20.3082 11.7957 20.3082 11.2394 19.7619L10.0786 20.9441C11.2794 22.1232 13.2202 22.1232 14.4211 20.9441L13.2603 19.7619ZM11.2394 19.7619C10.6914 19.2239 10.6914 18.358 11.2394 17.82L10.0786 16.6378C8.86927 17.8252 8.86927 19.7567 10.0786 20.9441L11.2394 19.7619ZM11.2394 17.82C11.7957 17.2737 12.7039 17.2737 13.2603 17.82L14.4211 16.6378C13.2202 15.4587 11.2794 15.4587 10.0786 16.6378L11.2394 17.82ZM13.2603 17.82C13.8082 18.358 13.8082 19.2239 13.2603 19.7619L14.4211 20.9441C15.6304 19.7567 15.6304 17.8252 14.4211 16.6378L13.2603 17.82ZM19.6242 14.6956L20.4196 15.4767L21.5804 14.2945L20.785 13.5134L19.6242 14.6956ZM14.4211 17.82L16.8078 15.4767L15.647 14.2944L13.2603 16.6377L14.4211 17.82ZM16.8078 15.4767L17.6032 14.6956L16.4424 13.5134L15.647 14.2945L16.8078 15.4767ZM15.647 15.4767L17.2379 17.0387L18.3987 15.8565L16.8078 14.2945L15.647 15.4767ZM20.785 13.5134C20.4266 13.1616 20.0998 12.8383 19.7993 12.6131C19.4791 12.3732 19.096 12.1716 18.6137 12.1716V13.8284C18.6145 13.8284 18.619 13.8273 18.6395 13.8357C18.6663 13.8466 18.7183 13.8735 18.806 13.9391C18.9969 14.0822 19.2326 14.3112 19.6242 14.6956L20.785 13.5134ZM17.6032 14.6956C17.9948 14.3112 18.2305 14.0822 18.4215 13.9391C18.5091 13.8735 18.5611 13.8466 18.5879 13.8357C18.6084 13.8273 18.6129 13.8284 18.6137 13.8284V12.1716C18.1314 12.1716 17.7483 12.3732 17.4281 12.6131C17.1276 12.8383 16.8008 13.1616 16.4424 13.5134L17.6032 14.6956Z"
			fill="#141B34"
		/>
	</g>
</svg>
