<svg
	width="60"
	height="60"
	viewBox="0 0 60 60"
	fill="none"
	xmlns="http://www.w3.org/2000/svg"
>
	<path
		d="M59.2638 29.6319C59.2638 45.9971 45.9971 59.2638 29.6319 59.2638C13.2667 59.2638 0 45.9971 0 29.6319C0 13.2667 13.2667 0 29.6319 0C45.9971 0 59.2638 13.2667 59.2638 29.6319Z"
		fill="#03306B"
	/>
	<path
		fill-rule="evenodd"
		clip-rule="evenodd"
		d="M29.6319 57.5579C45.055 57.5579 57.5579 45.055 57.5579 29.6319C57.5579 14.2088 45.055 1.70585 29.6319 1.70585C14.2088 1.70585 1.70585 14.2088 1.70585 29.6319C1.70585 45.055 14.2088 57.5579 29.6319 57.5579ZM29.6319 59.2638C45.9971 59.2638 59.2638 45.9971 59.2638 29.6319C59.2638 13.2667 45.9971 0 29.6319 0C13.2667 0 0 13.2667 0 29.6319C0 45.9971 13.2667 59.2638 29.6319 59.2638Z"
		fill="#D09E01"
	/>
	<path
		d="M20.8662 22.3796L6.80664 38.1744L17.3068 31.0111L27.6735 36.9731L20.0209 28.742L21.8006 27.0513L25.8494 31.0111L27.4066 28.742L33.8135 32.8798L28.8303 26.0725L31.055 22.6466L40.3539 32.3904L40.5763 28.2081L53.3456 38.1744L39.1971 22.3796L37.1504 24.8712L30.0761 16.1507L23.0908 25.2716L20.8662 22.3796Z"
		fill="#D09E01"
	/>
</svg>
