<svg
	width="253"
	height="61"
	viewBox="0 0 253 61"
	fill="none"
	xmlns="http://www.w3.org/2000/svg"
>
	<path
		d="M60.0001 30.5C60.0001 46.8652 46.7335 60.1319 30.3682 60.1319C14.003 60.1319 0.736328 46.8652 0.736328 30.5C0.736328 14.1348 14.003 0.868103 30.3682 0.868103C46.7335 0.868103 60.0001 14.1348 60.0001 30.5Z"
		fill="#03306B"
	/>
	<path
	
	fill-rule="evenodd"
		clip-rule="evenodd"
		d="M30.3682 58.426C45.7914 58.426 58.2943 45.9231 58.2943 30.5C58.2943 15.0769 45.7914 2.57395 30.3682 2.57395C14.9451 2.57395 2.44218 15.0769 2.44218 30.5C2.44218 45.9231 14.9451 58.426 30.3682 58.426ZM30.3682 60.1319C46.7335 60.1319 60.0001 46.8652 60.0001 30.5C60.0001 14.1348 46.7335 0.868103 30.3682 0.868103C14.003 0.868103 0.736328 14.1348 0.736328 30.5C0.736328 46.8652 14.003 60.1319 30.3682 60.1319Z"
		fill="#D09E01"
	/>
	<path
		d="M21.6025 23.2477L7.54297 39.0425L18.0432 31.8792L28.4099 37.8412L20.7572 29.6101L22.5369 27.9194L26.5857 31.8792L28.1429 29.6101L34.5498 33.7479L29.5667 26.9406L31.7913 23.5147L41.0902 33.2585L41.3127 29.0762L54.082 39.0425L39.9334 23.2477L37.8867 25.7393L30.8125 17.0188L23.8272 26.1397L21.6025 23.2477Z"
		fill="#D09E01"
	/>
	<path
		d="M78.7063 19.6134C78.7063 20.5026 78.8205 21.302 79.0489 22.0117C79.2773 22.7132 79.6036 23.3087 80.0278 23.7981C80.4601 24.2876 80.9863 24.6628 81.6062 24.9239C82.2344 25.1767 82.9481 25.3032 83.7475 25.3032C84.5388 25.3032 85.2444 25.1767 85.8644 24.9239C86.4843 24.6628 87.0064 24.2876 87.4306 23.7981C87.8629 23.3087 88.1933 22.7132 88.4217 22.0117C88.6501 21.302 88.7643 20.5026 88.7643 19.6134C88.7643 18.7324 88.6501 17.9412 88.4217 17.2396C88.1933 16.53 87.8629 15.9304 87.4306 15.441C87.0064 14.9515 86.4843 14.5763 85.8644 14.3152C85.2444 14.0542 84.5388 13.9237 83.7475 13.9237C82.9481 13.9237 82.2344 14.0542 81.6062 14.3152C80.9863 14.5763 80.4601 14.9515 80.0278 15.441C79.6036 15.9304 79.2773 16.53 79.0489 17.2396C78.8205 17.9412 78.7063 18.7324 78.7063 19.6134ZM94.0013 31.8739H90.5997C90.1103 31.8739 89.6698 31.8086 89.2782 31.6781C88.8948 31.5558 88.5359 31.3233 88.2015 30.9807L85.9867 28.4968C85.2934 28.6518 84.547 28.7293 83.7475 28.7293C82.3608 28.7293 81.0964 28.4968 79.9544 28.0318C78.8124 27.5668 77.8335 26.9265 77.0177 26.1107C76.2102 25.2869 75.5821 24.3202 75.1334 23.2108C74.6929 22.1014 74.4727 20.9023 74.4727 19.6134C74.4727 18.3246 74.6929 17.1254 75.1334 16.016C75.5821 14.9066 76.2102 13.9441 77.0177 13.1283C77.8335 12.3126 78.8124 11.6723 79.9544 11.2073C81.0964 10.7423 82.3608 10.5098 83.7475 10.5098C85.1343 10.5098 86.3946 10.7464 87.5285 11.2195C88.6705 11.6845 89.6453 12.3248 90.4529 13.1406C91.2605 13.9563 91.8845 14.9189 92.325 16.0283C92.7736 17.1377 92.998 18.3327 92.998 19.6134C92.998 20.3802 92.9164 21.1185 92.7533 21.8281C92.5983 22.5297 92.3699 23.1904 92.068 23.8104C91.7744 24.4303 91.4073 25.0054 90.9668 25.5357C90.5345 26.0659 90.0409 26.5349 89.4862 26.9428L94.0013 31.8739Z"
		fill="#052B63"
	/>
	<path
		d="M106.157 23.3699C105.398 23.4025 104.774 23.4678 104.285 23.5657C103.795 23.6635 103.408 23.7859 103.122 23.9327C102.837 24.0796 102.637 24.2468 102.523 24.4344C102.417 24.622 102.364 24.826 102.364 25.0462C102.364 25.4786 102.482 25.7845 102.719 25.9639C102.955 26.1352 103.302 26.2209 103.759 26.2209C104.248 26.2209 104.676 26.1352 105.043 25.9639C105.41 25.7926 105.782 25.5153 106.157 25.1319V23.3699ZM99.3291 17.6067C100.096 16.9297 100.944 16.428 101.874 16.1017C102.812 15.7672 103.816 15.6 104.884 15.6C105.651 15.6 106.34 15.7265 106.952 15.9793C107.572 16.2241 108.094 16.5707 108.518 17.0194C108.951 17.4599 109.281 17.986 109.51 18.5978C109.738 19.2096 109.852 19.8785 109.852 20.6045V28.5335H108.115C107.756 28.5335 107.482 28.4845 107.295 28.3866C107.115 28.2888 106.964 28.0848 106.842 27.7748L106.573 27.0774C106.255 27.3466 105.949 27.5831 105.655 27.7871C105.361 27.991 105.056 28.1664 104.737 28.3132C104.427 28.4519 104.093 28.5539 103.734 28.6191C103.383 28.6925 102.992 28.7293 102.559 28.7293C101.98 28.7293 101.454 28.6558 100.981 28.509C100.508 28.354 100.104 28.1297 99.7696 27.836C99.4433 27.5424 99.1905 27.1794 99.011 26.747C98.8315 26.3065 98.7418 25.8008 98.7418 25.2298C98.7418 24.7729 98.856 24.3121 99.0844 23.8471C99.3128 23.374 99.7085 22.9457 100.271 22.5623C100.834 22.1708 101.593 21.8445 102.547 21.5834C103.502 21.3224 104.705 21.1756 106.157 21.1429V20.6045C106.157 19.8622 106.002 19.3279 105.692 19.0016C105.39 18.6672 104.958 18.5 104.395 18.5C103.946 18.5 103.579 18.5489 103.294 18.6468C103.008 18.7447 102.751 18.8548 102.523 18.9772C102.302 19.0995 102.086 19.2096 101.874 19.3075C101.662 19.4054 101.409 19.4544 101.116 19.4544C100.855 19.4544 100.634 19.3891 100.455 19.2586C100.275 19.1281 100.129 18.9731 100.014 18.7936L99.3291 17.6067Z"
		fill="#052B63"
	/>
	<path
		d="M126.605 17.362C126.605 17.623 126.56 17.8759 126.471 18.1206C126.381 18.3654 126.263 18.5652 126.116 18.7202L120.817 25.7192H126.483V28.5335H116.449V26.9917C116.449 26.8368 116.49 26.641 116.572 26.4044C116.653 26.1679 116.776 25.9476 116.939 25.7437L122.286 18.659H116.792V15.8447H126.605V17.362Z"
		fill="#052B63"
	/>
	<path
		d="M140.715 25.4133C141.261 25.4133 141.706 25.344 142.048 25.2053C142.399 25.0666 142.672 24.8871 142.868 24.6669C143.064 24.4467 143.198 24.1979 143.272 23.9205C143.345 23.6432 143.382 23.3617 143.382 23.0762C143.382 22.7499 143.337 22.4563 143.247 22.1952C143.166 21.9342 143.019 21.7139 142.807 21.5345C142.603 21.355 142.33 21.2163 141.987 21.1185C141.645 21.0206 141.212 20.9716 140.69 20.9716H137.802V25.4133H140.715ZM137.802 13.8013V18.2063H139.956C140.413 18.2063 140.825 18.1737 141.192 18.1084C141.559 18.0431 141.869 17.9289 142.122 17.7658C142.383 17.6026 142.579 17.3783 142.709 17.0928C142.848 16.8073 142.917 16.4484 142.917 16.016C142.917 15.5919 142.864 15.2411 142.758 14.9637C142.652 14.6782 142.489 14.4498 142.269 14.2785C142.048 14.1072 141.767 13.9849 141.424 13.9115C141.09 13.838 140.69 13.8013 140.225 13.8013H137.802ZM140.225 10.7056C141.457 10.7056 142.505 10.8198 143.37 11.0482C144.234 11.2766 144.94 11.5988 145.487 12.0149C146.033 12.4309 146.429 12.9366 146.674 13.5321C146.926 14.1276 147.053 14.7924 147.053 15.5266C147.053 15.9263 146.996 16.3138 146.882 16.689C146.767 17.0561 146.588 17.4028 146.343 17.7291C146.098 18.0472 145.784 18.3409 145.401 18.6101C145.018 18.8793 144.557 19.1118 144.018 19.3075C145.193 19.593 146.062 20.0539 146.625 20.6902C147.187 21.3265 147.469 22.1504 147.469 23.1619C147.469 23.9205 147.322 24.6261 147.028 25.2787C146.735 25.9313 146.302 26.5023 145.731 26.9917C145.168 27.473 144.471 27.8523 143.639 28.1297C142.807 28.3989 141.857 28.5335 140.788 28.5335H133.667V10.7056H140.225Z"
		fill="#052B63"
	/>
	<path
		d="M160.196 15.649C161.159 15.649 162.036 15.7999 162.827 16.1017C163.618 16.4035 164.295 16.8359 164.858 17.3987C165.429 17.9616 165.87 18.6468 166.18 19.4544C166.498 20.2538 166.657 21.1552 166.657 22.1585C166.657 23.17 166.498 24.0837 166.18 24.8994C165.87 25.707 165.429 26.3963 164.858 26.9673C164.295 27.5301 163.618 27.9665 162.827 28.2765C162.036 28.5783 161.159 28.7293 160.196 28.7293C159.226 28.7293 158.341 28.5783 157.541 28.2765C156.75 27.9665 156.065 27.5301 155.486 26.9673C154.915 26.3963 154.47 25.707 154.152 24.8994C153.842 24.0837 153.687 23.17 153.687 22.1585C153.687 21.1552 153.842 20.2538 154.152 19.4544C154.47 18.6468 154.915 17.9616 155.486 17.3987C156.065 16.8359 156.75 16.4035 157.541 16.1017C158.341 15.7999 159.226 15.649 160.196 15.649ZM160.196 25.915C161.069 25.915 161.71 25.6091 162.117 24.9973C162.533 24.3773 162.741 23.4392 162.741 22.183C162.741 20.9268 162.533 19.9927 162.117 19.3809C161.71 18.7691 161.069 18.4632 160.196 18.4632C159.299 18.4632 158.642 18.7691 158.226 19.3809C157.81 19.9927 157.602 20.9268 157.602 22.183C157.602 23.4392 157.81 24.3773 158.226 24.9973C158.642 25.6091 159.299 25.915 160.196 25.915Z"
		fill="#052B63"
	/>
	<path
		d="M179.31 15.649C180.273 15.649 181.15 15.7999 181.941 16.1017C182.732 16.4035 183.409 16.8359 183.972 17.3987C184.543 17.9616 184.984 18.6468 185.294 19.4544C185.612 20.2538 185.771 21.1552 185.771 22.1585C185.771 23.17 185.612 24.0837 185.294 24.8994C184.984 25.707 184.543 26.3963 183.972 26.9673C183.409 27.5301 182.732 27.9665 181.941 28.2765C181.15 28.5783 180.273 28.7293 179.31 28.7293C178.34 28.7293 177.455 28.5783 176.655 28.2765C175.864 27.9665 175.179 27.5301 174.6 26.9673C174.028 26.3963 173.584 25.707 173.266 24.8994C172.956 24.0837 172.801 23.17 172.801 22.1585C172.801 21.1552 172.956 20.2538 173.266 19.4544C173.584 18.6468 174.028 17.9616 174.6 17.3987C175.179 16.8359 175.864 16.4035 176.655 16.1017C177.455 15.7999 178.34 15.649 179.31 15.649ZM179.31 25.915C180.183 25.915 180.824 25.6091 181.231 24.9973C181.647 24.3773 181.855 23.4392 181.855 22.183C181.855 20.9268 181.647 19.9927 181.231 19.3809C180.824 18.7691 180.183 18.4632 179.31 18.4632C178.413 18.4632 177.756 18.7691 177.34 19.3809C176.924 19.9927 176.716 20.9268 176.716 22.183C176.716 23.4392 176.924 24.3773 177.34 24.9973C177.756 25.6091 178.413 25.915 179.31 25.915Z"
		fill="#052B63"
	/>
	<path
		d="M196.369 10.2162V20.4822H196.932C197.168 20.4822 197.348 20.4496 197.47 20.3843C197.592 20.3109 197.715 20.1926 197.837 20.0295L200.235 16.4565C200.382 16.2526 200.549 16.1017 200.737 16.0038C200.925 15.8978 201.165 15.8447 201.459 15.8447H204.934L201.655 20.3598C201.345 20.7677 200.978 21.1021 200.553 21.3632C200.741 21.5019 200.912 21.665 201.067 21.8526C201.222 22.0321 201.369 22.236 201.508 22.4644L205.081 28.5335H201.655C201.369 28.5335 201.124 28.4886 200.921 28.3989C200.717 28.301 200.545 28.1338 200.407 27.8972L198.008 23.4066C197.894 23.2027 197.776 23.0721 197.653 23.015C197.531 22.9498 197.348 22.9172 197.103 22.9172H196.369V28.5335H192.576V10.2162H196.369Z"
		fill="#052B63"
	/>
	<path
		d="M215.019 15.8447V28.5335H211.226V15.8447H215.019ZM215.41 12.3697C215.41 12.6715 215.349 12.957 215.227 13.2262C215.104 13.4873 214.937 13.7198 214.725 13.9237C214.513 14.1195 214.264 14.2785 213.979 14.4009C213.701 14.5151 213.404 14.5722 213.085 14.5722C212.775 14.5722 212.486 14.5151 212.217 14.4009C211.947 14.2785 211.707 14.1195 211.495 13.9237C211.291 13.7198 211.128 13.4873 211.005 13.2262C210.891 12.957 210.834 12.6715 210.834 12.3697C210.834 12.0597 210.891 11.7701 211.005 11.501C211.128 11.2318 211.291 10.9952 211.495 10.7913C211.707 10.5873 211.947 10.4283 212.217 10.3141C212.486 10.1999 212.775 10.1428 213.085 10.1428C213.404 10.1428 213.701 10.1999 213.979 10.3141C214.264 10.4283 214.513 10.5873 214.725 10.7913C214.937 10.9952 215.104 11.2318 215.227 11.501C215.349 11.7701 215.41 12.0597 215.41 12.3697Z"
		fill="#052B63"
	/>
	<path
		d="M226.058 17.2152C226.303 16.9868 226.556 16.7747 226.817 16.5789C227.078 16.3831 227.355 16.22 227.649 16.0895C227.951 15.9508 228.273 15.8447 228.615 15.7713C228.966 15.6897 229.345 15.649 229.753 15.649C230.447 15.649 231.058 15.7713 231.589 16.016C232.127 16.2526 232.58 16.5871 232.947 17.0194C233.314 17.4436 233.591 17.9534 233.779 18.5489C233.967 19.1362 234.06 19.7766 234.06 20.47V28.5335H230.267V20.47C230.267 19.85 230.124 19.3687 229.839 19.0261C229.553 18.6753 229.133 18.5 228.579 18.5C228.163 18.5 227.771 18.5897 227.404 18.7691C227.045 18.9404 226.694 19.177 226.352 19.4788V28.5335H222.559V15.8447H224.908C225.381 15.8447 225.691 16.0568 225.838 16.481L226.058 17.2152Z"
		fill="#052B63"
	/>
	<path
		d="M246.243 21.5222C246.871 21.5222 247.324 21.3673 247.601 21.0573C247.887 20.7391 248.029 20.3313 248.029 19.8337C248.029 19.3198 247.887 18.916 247.601 18.6223C247.324 18.3286 246.871 18.1818 246.243 18.1818C245.615 18.1818 245.158 18.3286 244.872 18.6223C244.595 18.916 244.456 19.3198 244.456 19.8337C244.456 20.0784 244.489 20.3027 244.554 20.5067C244.628 20.7106 244.738 20.8901 244.885 21.045C245.031 21.1919 245.215 21.3102 245.435 21.3999C245.664 21.4815 245.933 21.5222 246.243 21.5222ZM249.179 28.9984C249.179 28.6966 249.045 28.4805 248.776 28.3499C248.507 28.2113 248.156 28.1134 247.723 28.0563C247.291 27.9992 246.806 27.9665 246.267 27.9584C245.737 27.9421 245.207 27.9094 244.677 27.8605C244.44 28.0236 244.244 28.2072 244.089 28.4111C243.942 28.6069 243.869 28.8312 243.869 29.0841C243.869 29.2636 243.906 29.4267 243.979 29.5735C244.061 29.7204 244.199 29.8468 244.395 29.9529C244.591 30.0589 244.852 30.1405 245.178 30.1976C245.513 30.2628 245.933 30.2955 246.439 30.2955C246.985 30.2955 247.434 30.2628 247.785 30.1976C248.135 30.1323 248.413 30.0426 248.617 29.9284C248.829 29.8142 248.976 29.6755 249.057 29.5124C249.139 29.3574 249.179 29.1861 249.179 28.9984ZM252.924 16.2363V17.619C252.924 17.8311 252.863 17.9983 252.74 18.1206C252.626 18.243 252.426 18.3368 252.141 18.4021L251.223 18.6101C251.272 18.7895 251.309 18.9731 251.333 19.1607C251.366 19.3483 251.382 19.5441 251.382 19.748C251.382 20.3843 251.247 20.9553 250.978 21.4611C250.717 21.9668 250.354 22.3992 249.889 22.7581C249.432 23.1088 248.89 23.3821 248.262 23.5779C247.634 23.7655 246.961 23.8593 246.243 23.8593C246.047 23.8593 245.855 23.8552 245.668 23.8471C245.48 23.8308 245.297 23.8063 245.117 23.7737C244.84 23.945 244.701 24.1367 244.701 24.3488C244.701 24.5609 244.815 24.7158 245.044 24.8137C245.272 24.9035 245.574 24.9687 245.949 25.0095C246.324 25.0421 246.749 25.0666 247.222 25.0829C247.703 25.0911 248.192 25.1196 248.69 25.1686C249.188 25.2094 249.673 25.2828 250.146 25.3888C250.627 25.4949 251.056 25.6662 251.431 25.9027C251.806 26.1393 252.108 26.4574 252.336 26.8571C252.565 27.2487 252.679 27.7504 252.679 28.3622C252.679 28.9332 252.54 29.492 252.263 30.0385C251.986 30.585 251.578 31.0704 251.039 31.4946C250.501 31.9188 249.84 32.2573 249.057 32.5102C248.274 32.7712 247.377 32.9017 246.365 32.9017C245.37 32.9017 244.509 32.8079 243.783 32.6203C243.066 32.4327 242.466 32.1839 241.985 31.8739C241.512 31.5721 241.161 31.2213 240.932 30.8216C240.704 30.4219 240.59 30.0059 240.59 29.5735C240.59 29.0107 240.753 28.5416 241.079 28.1664C241.406 27.7912 241.862 27.4893 242.45 27.2609C242.14 27.0733 241.895 26.8327 241.716 26.539C241.536 26.2453 241.446 25.866 241.446 25.4011C241.446 25.2134 241.479 25.0177 241.544 24.8137C241.609 24.6016 241.711 24.3977 241.85 24.2019C241.997 23.998 242.176 23.8063 242.389 23.6268C242.601 23.4474 242.853 23.2883 243.147 23.1496C242.486 22.7989 241.964 22.338 241.581 21.767C241.198 21.1878 241.006 20.5148 241.006 19.748C241.006 19.1118 241.14 18.5407 241.41 18.035C241.679 17.5211 242.046 17.0887 242.511 16.738C242.984 16.379 243.539 16.1058 244.175 15.9182C244.811 15.7224 245.501 15.6245 246.243 15.6245C247.32 15.6245 248.274 15.8284 249.106 16.2363H252.924Z"
		fill="#052B63"
	/>
	<path
		d="M107.009 47.7615H105.706V43.5952L102.678 35.4276H104.018L105.266 38.7864C105.315 38.921 105.688 40.0161 106.385 42.0718C106.838 40.6646 107.615 38.4499 108.716 35.4276H110.038L107.009 43.5952V47.7615Z"
		fill="#064394"
	/>
	<path
		d="M119.787 38.1807C119.787 37.0183 119.181 36.4371 117.97 36.4371C116.771 36.4371 116.171 37.0183 116.171 38.1807V45.0084C116.171 46.1831 116.771 46.7704 117.97 46.7704C119.181 46.7704 119.787 46.1831 119.787 45.0084V38.1807ZM114.868 38.1624C114.868 37.2936 115.131 36.59 115.657 36.0517C116.183 35.5133 116.954 35.2441 117.97 35.2441C118.998 35.2441 119.775 35.5133 120.301 36.0517C120.827 36.59 121.09 37.2936 121.09 38.1624V45.0451C121.09 45.9139 120.827 46.6174 120.301 47.1558C119.775 47.682 118.998 47.9451 117.97 47.9451C116.942 47.9451 116.165 47.682 115.639 47.1558C115.125 46.6174 114.868 45.9139 114.868 45.0451V38.1624Z"
		fill="#064394"
	/>
	<path
		d="M131.92 35.4276H133.223V45.0451C133.223 45.9139 132.96 46.6174 132.433 47.1558C131.92 47.682 131.149 47.9451 130.121 47.9451C129.093 47.9451 128.316 47.682 127.79 47.1558C127.276 46.6174 127.019 45.9139 127.019 45.0451V35.4276H128.322V45.0084C128.322 46.1831 128.922 46.7704 130.121 46.7704C131.32 46.7704 131.92 46.1831 131.92 45.0084V35.4276Z"
		fill="#064394"
	/>
	<path
		d="M142.451 42.8059H140.634V47.7615H139.331V35.4276H142.323C143.302 35.4276 144.042 35.6785 144.544 36.1801C145.045 36.6696 145.296 37.3426 145.296 38.1991V40.0161C145.296 41.3376 144.77 42.1941 143.718 42.5857L145.682 47.7615H144.25L142.451 42.8059ZM140.634 41.668H142.268C143.418 41.668 143.993 41.1112 143.993 39.9978V38.2541C143.993 37.1407 143.418 36.5839 142.268 36.5839H140.634V41.668Z"
		fill="#064394"
	/>
	<path
		d="M158.557 35.4276H159.86V44.1274C159.86 45.6936 159.658 47.1742 159.254 48.5691L158.685 50.4963H157.345L157.896 48.5691C158.337 47.0029 158.557 45.5284 158.557 44.1458V35.4276Z"
		fill="#064394"
	/>
	<path
		d="M170.798 38.1807C170.798 37.0183 170.193 36.4371 168.981 36.4371C167.782 36.4371 167.182 37.0183 167.182 38.1807V45.0084C167.182 46.1831 167.782 46.7704 168.981 46.7704C170.193 46.7704 170.798 46.1831 170.798 45.0084V38.1807ZM165.879 38.1624C165.879 37.2936 166.142 36.59 166.669 36.0517C167.195 35.5133 167.966 35.2441 168.981 35.2441C170.009 35.2441 170.786 35.5133 171.312 36.0517C171.838 36.59 172.101 37.2936 172.101 38.1624V45.0451C172.101 45.9139 171.838 46.6174 171.312 47.1558C170.786 47.682 170.009 47.9451 168.981 47.9451C167.953 47.9451 167.176 47.682 166.65 47.1558C166.136 46.6174 165.879 45.9139 165.879 45.0451V38.1624Z"
		fill="#064394"
	/>
	<path
		d="M182.931 35.4276H184.234V45.0451C184.234 45.9139 183.971 46.6174 183.445 47.1558C182.931 47.682 182.16 47.9451 181.132 47.9451C180.104 47.9451 179.327 47.682 178.801 47.1558C178.287 46.6174 178.03 45.9139 178.03 45.0451V35.4276H179.333V45.0084C179.333 46.1831 179.933 46.7704 181.132 46.7704C182.331 46.7704 182.931 46.1831 182.931 45.0084V35.4276Z"
		fill="#064394"
	/>
	<path
		d="M193.463 42.8059H191.646V47.7615H190.342V35.4276H193.334C194.313 35.4276 195.053 35.6785 195.555 36.1801C196.057 36.6696 196.308 37.3426 196.308 38.1991V40.0161C196.308 41.3376 195.781 42.1941 194.729 42.5857L196.693 47.7615H195.261L193.463 42.8059ZM191.646 41.668H193.279C194.429 41.668 195.004 41.1112 195.004 39.9978V38.2541C195.004 37.1407 194.429 36.5839 193.279 36.5839H191.646V41.668Z"
		fill="#064394"
	/>
	<path
		d="M207.871 45.6692L207.743 41.6129V35.4276H209.046V47.7615H207.541L205.008 41.3743C204.91 41.1174 204.427 39.8387 203.558 37.5383L203.668 41.5762V47.7615H202.402V35.4276H203.907C205.852 40.371 207.174 43.7848 207.871 45.6692Z"
		fill="#064394"
	/>
	<path
		d="M215.249 35.4276H220.59V36.5839H216.553V40.9705H220.077V42.1268H216.553V46.6052H220.59V47.7615H215.249V35.4276Z"
		fill="#064394"
	/>
	<path
		d="M229.354 47.7615H228.051V43.5952L225.022 35.4276H226.362L227.61 38.7864C227.659 38.921 228.032 40.0161 228.73 42.0718C229.183 40.6646 229.959 38.4499 231.061 35.4276H232.382L229.354 43.5952V47.7615Z"
		fill="#064394"
	/>
</svg>
