<svg
	width="253"
	height="61"
	viewBox="0 0 253 61"
	fill="none"
	xmlns="http://www.w3.org/2000/svg"
>
	<path
		d="M59.2638 30.5196C59.2638 46.8848 45.9971 60.1515 29.6319 60.1515C13.2667 60.1515 0 46.8848 0 30.5196C0 14.1543 13.2667 0.887695 29.6319 0.887695C45.9971 0.887695 59.2638 14.1543 59.2638 30.5196Z"
		fill="white"
	/>
	<path
		d="M20.8662 23.2675L6.80664 39.0623L17.3068 31.899L27.6735 37.861L20.0209 29.6299L21.8006 27.9392L25.8494 31.899L27.4066 29.6299L33.8135 33.7677L28.8303 26.9604L31.055 23.5345L40.3539 33.2783L40.5763 29.096L53.3456 39.0623L39.1971 23.2675L37.1504 25.7591L30.0761 17.0386L23.0908 26.1595L20.8662 23.2675Z"
		fill="#464646"
	/>
	<path
		d="M77.97 19.6328C77.97 20.5219 78.0842 21.3213 78.3126 22.031C78.541 22.7326 78.8673 23.3281 79.2915 23.8175C79.7238 24.3069 80.25 24.6822 80.8699 24.9432C81.498 25.1961 82.2118 25.3225 83.0112 25.3225C83.8025 25.3225 84.5081 25.1961 85.128 24.9432C85.748 24.6822 86.2701 24.3069 86.6943 23.8175C87.1266 23.3281 87.457 22.7326 87.6854 22.031C87.9138 21.3213 88.028 20.5219 88.028 19.6328C88.028 18.7518 87.9138 17.9605 87.6854 17.259C87.457 16.5493 87.1266 15.9497 86.6943 15.4603C86.2701 14.9709 85.748 14.5956 85.128 14.3346C84.5081 14.0736 83.8025 13.943 83.0112 13.943C82.2118 13.943 81.498 14.0736 80.8699 14.3346C80.25 14.5956 79.7238 14.9709 79.2915 15.4603C78.8673 15.9497 78.541 16.5493 78.3126 17.259C78.0842 17.9605 77.97 18.7518 77.97 19.6328ZM93.265 31.8933H89.8634C89.3739 31.8933 88.9334 31.828 88.5419 31.6975C88.1585 31.5751 87.7996 31.3426 87.4651 31L85.2504 28.5161C84.557 28.6711 83.8106 28.7486 83.0112 28.7486C81.6245 28.7486 80.3601 28.5161 79.2181 28.0512C78.076 27.5862 77.0972 26.9458 76.2814 26.1301C75.4738 25.3062 74.8457 24.3396 74.3971 23.2302C73.9566 22.1208 73.7363 20.9216 73.7363 19.6328C73.7363 18.3439 73.9566 17.1448 74.3971 16.0354C74.8457 14.926 75.4738 13.9634 76.2814 13.1477C77.0972 12.332 78.076 11.6916 79.2181 11.2266C80.3601 10.7617 81.6245 10.5292 83.0112 10.5292C84.398 10.5292 85.6583 10.7658 86.7921 11.2389C87.9342 11.7038 88.909 12.3442 89.7166 13.1599C90.5241 13.9757 91.1482 14.9382 91.5887 16.0476C92.0373 17.157 92.2616 18.3521 92.2616 19.6328C92.2616 20.3996 92.1801 21.1378 92.0169 21.8475C91.8619 22.549 91.6335 23.2098 91.3317 23.8297C91.038 24.4497 90.671 25.0248 90.2305 25.555C89.7981 26.0852 89.3046 26.5543 88.7499 26.9621L93.265 31.8933Z"
		fill="white"
	/>
	<path
		d="M105.421 23.3892C104.662 23.4219 104.038 23.4871 103.548 23.585C103.059 23.6829 102.671 23.8053 102.386 23.9521C102.1 24.0989 101.901 24.2661 101.786 24.4538C101.68 24.6414 101.627 24.8453 101.627 25.0656C101.627 25.4979 101.746 25.8038 101.982 25.9833C102.219 26.1546 102.565 26.2402 103.022 26.2402C103.512 26.2402 103.94 26.1546 104.307 25.9833C104.674 25.812 105.045 25.5346 105.421 25.1512V23.3892ZM98.5928 17.6261C99.3596 16.949 100.208 16.4473 101.138 16.121C102.076 15.7866 103.079 15.6194 104.148 15.6194C104.915 15.6194 105.604 15.7458 106.216 15.9987C106.836 16.2434 107.358 16.5901 107.782 17.0387C108.214 17.4792 108.545 18.0054 108.773 18.6172C109.002 19.229 109.116 19.8979 109.116 20.6239V28.5528H107.378C107.019 28.5528 106.746 28.5039 106.558 28.406C106.379 28.3081 106.228 28.1042 106.106 27.7942L105.837 27.0967C105.518 27.3659 105.212 27.6025 104.919 27.8064C104.625 28.0104 104.319 28.1857 104.001 28.3326C103.691 28.4713 103.357 28.5732 102.998 28.6385C102.647 28.7119 102.255 28.7486 101.823 28.7486C101.244 28.7486 100.718 28.6752 100.245 28.5284C99.7716 28.3734 99.3678 28.149 99.0333 27.8554C98.707 27.5617 98.4541 27.1987 98.2747 26.7664C98.0952 26.3259 98.0055 25.8201 98.0055 25.2491C98.0055 24.7923 98.1197 24.3314 98.3481 23.8664C98.5765 23.3933 98.9721 22.9651 99.535 22.5817C100.098 22.1901 100.856 21.8638 101.811 21.6028C102.765 21.3417 103.969 21.1949 105.421 21.1623V20.6239C105.421 19.8816 105.266 19.3473 104.956 19.021C104.654 18.6865 104.221 18.5193 103.659 18.5193C103.21 18.5193 102.843 18.5682 102.557 18.6661C102.272 18.764 102.015 18.8741 101.786 18.9965C101.566 19.1189 101.35 19.229 101.138 19.3269C100.926 19.4248 100.673 19.4737 100.379 19.4737C100.118 19.4737 99.898 19.4085 99.7185 19.2779C99.5391 19.1474 99.3922 18.9924 99.278 18.813L98.5928 17.6261Z"
		fill="white"
	/>
	<path
		d="M125.869 17.3814C125.869 17.6424 125.824 17.8953 125.734 18.14C125.644 18.3847 125.526 18.5846 125.379 18.7395L120.081 25.7385H125.746V28.5528H115.713V27.0111C115.713 26.8561 115.754 26.6603 115.835 26.4238C115.917 26.1872 116.039 25.967 116.202 25.763L121.549 18.6784H116.056V15.8641H125.869V17.3814Z"
		fill="white"
	/>
	<path
		d="M139.978 25.4326C140.525 25.4326 140.969 25.3633 141.312 25.2246C141.663 25.086 141.936 24.9065 142.132 24.6862C142.328 24.466 142.462 24.2172 142.536 23.9399C142.609 23.6625 142.646 23.3811 142.646 23.0956C142.646 22.7693 142.601 22.4756 142.511 22.2146C142.43 21.9535 142.283 21.7333 142.071 21.5538C141.867 21.3744 141.593 21.2357 141.251 21.1378C140.908 21.0399 140.476 20.991 139.954 20.991H137.066V25.4326H139.978ZM137.066 13.8207V18.2256H139.22C139.676 18.2256 140.088 18.193 140.455 18.1277C140.823 18.0625 141.133 17.9483 141.385 17.7851C141.646 17.622 141.842 17.3977 141.973 17.1122C142.111 16.8267 142.181 16.4677 142.181 16.0354C142.181 15.6112 142.128 15.2604 142.022 14.9831C141.916 14.6976 141.752 14.4692 141.532 14.2979C141.312 14.1266 141.031 14.0042 140.688 13.9308C140.353 13.8574 139.954 13.8207 139.489 13.8207H137.066ZM139.489 10.725C140.721 10.725 141.769 10.8392 142.633 11.0676C143.498 11.296 144.204 11.6182 144.75 12.0342C145.297 12.4502 145.692 12.956 145.937 13.5515C146.19 14.147 146.316 14.8118 146.316 15.546C146.316 15.9457 146.259 16.3331 146.145 16.7084C146.031 17.0755 145.852 17.4221 145.607 17.7484C145.362 18.0666 145.048 18.3602 144.665 18.6294C144.281 18.8986 143.82 19.1311 143.282 19.3269C144.457 19.6124 145.325 20.0733 145.888 20.7095C146.451 21.3458 146.733 22.1697 146.733 23.1812C146.733 23.9399 146.586 24.6455 146.292 25.298C145.998 25.9506 145.566 26.5216 144.995 27.0111C144.432 27.4924 143.735 27.8717 142.903 28.149C142.071 28.4182 141.12 28.5528 140.052 28.5528H132.93V10.725H139.489Z"
		fill="white"
	/>
	<path
		d="M159.46 15.6683C160.423 15.6683 161.3 15.8192 162.091 16.121C162.882 16.4229 163.559 16.8552 164.122 17.4181C164.693 17.9809 165.133 18.6661 165.443 19.4737C165.762 20.2731 165.921 21.1745 165.921 22.1779C165.921 23.1894 165.762 24.103 165.443 24.9187C165.133 25.7263 164.693 26.4156 164.122 26.9866C163.559 27.5495 162.882 27.9859 162.091 28.2959C161.3 28.5977 160.423 28.7486 159.46 28.7486C158.489 28.7486 157.604 28.5977 156.805 28.2959C156.014 27.9859 155.328 27.5495 154.749 26.9866C154.178 26.4156 153.734 25.7263 153.415 24.9187C153.105 24.103 152.951 23.1894 152.951 22.1779C152.951 21.1745 153.105 20.2731 153.415 19.4737C153.734 18.6661 154.178 17.9809 154.749 17.4181C155.328 16.8552 156.014 16.4229 156.805 16.121C157.604 15.8192 158.489 15.6683 159.46 15.6683ZM159.46 25.9343C160.333 25.9343 160.973 25.6284 161.381 25.0166C161.797 24.3967 162.005 23.4586 162.005 22.2023C162.005 20.9461 161.797 20.0121 161.381 19.4003C160.973 18.7885 160.333 18.4826 159.46 18.4826C158.563 18.4826 157.906 18.7885 157.49 19.4003C157.074 20.0121 156.866 20.9461 156.866 22.2023C156.866 23.4586 157.074 24.3967 157.49 25.0166C157.906 25.6284 158.563 25.9343 159.46 25.9343Z"
		fill="white"
	/>
	<path
		d="M178.574 15.6683C179.537 15.6683 180.414 15.8192 181.205 16.121C181.996 16.4229 182.673 16.8552 183.236 17.4181C183.807 17.9809 184.247 18.6661 184.557 19.4737C184.876 20.2731 185.035 21.1745 185.035 22.1779C185.035 23.1894 184.876 24.103 184.557 24.9187C184.247 25.7263 183.807 26.4156 183.236 26.9866C182.673 27.5495 181.996 27.9859 181.205 28.2959C180.414 28.5977 179.537 28.7486 178.574 28.7486C177.603 28.7486 176.718 28.5977 175.919 28.2959C175.128 27.9859 174.442 27.5495 173.863 26.9866C173.292 26.4156 172.848 25.7263 172.529 24.9187C172.219 24.103 172.064 23.1894 172.064 22.1779C172.064 21.1745 172.219 20.2731 172.529 19.4737C172.848 18.6661 173.292 17.9809 173.863 17.4181C174.442 16.8552 175.128 16.4229 175.919 16.121C176.718 15.8192 177.603 15.6683 178.574 15.6683ZM178.574 25.9343C179.447 25.9343 180.087 25.6284 180.495 25.0166C180.911 24.3967 181.119 23.4586 181.119 22.2023C181.119 20.9461 180.911 20.0121 180.495 19.4003C180.087 18.7885 179.447 18.4826 178.574 18.4826C177.677 18.4826 177.02 18.7885 176.604 19.4003C176.188 20.0121 175.98 20.9461 175.98 22.2023C175.98 23.4586 176.188 24.3967 176.604 25.0166C177.02 25.6284 177.677 25.9343 178.574 25.9343Z"
		fill="white"
	/>
	<path
		d="M195.632 10.2355V20.5015H196.195C196.432 20.5015 196.611 20.4689 196.734 20.4036C196.856 20.3302 196.978 20.2119 197.101 20.0488L199.499 16.4759C199.646 16.272 199.813 16.121 200.001 16.0232C200.188 15.9171 200.429 15.8641 200.723 15.8641H204.198L200.918 20.3792C200.608 20.787 200.241 21.1215 199.817 21.3825C200.005 21.5212 200.176 21.6843 200.331 21.872C200.486 22.0514 200.633 22.2554 200.772 22.4838L204.344 28.5528H200.918C200.633 28.5528 200.388 28.508 200.184 28.4182C199.98 28.3203 199.809 28.1531 199.67 27.9166L197.272 23.4259C197.158 23.222 197.04 23.0915 196.917 23.0344C196.795 22.9691 196.611 22.9365 196.367 22.9365H195.632V28.5528H191.839V10.2355H195.632Z"
		fill="white"
	/>
	<path
		d="M214.282 15.8641V28.5528H210.489V15.8641H214.282ZM214.674 12.3891C214.674 12.6909 214.613 12.9764 214.49 13.2456C214.368 13.5066 214.201 13.7391 213.989 13.943C213.777 14.1388 213.528 14.2979 213.242 14.4202C212.965 14.5344 212.667 14.5915 212.349 14.5915C212.039 14.5915 211.749 14.5344 211.48 14.4202C211.211 14.2979 210.97 14.1388 210.758 13.943C210.554 13.7391 210.391 13.5066 210.269 13.2456C210.155 12.9764 210.098 12.6909 210.098 12.3891C210.098 12.0791 210.155 11.7895 210.269 11.5203C210.391 11.2511 210.554 11.0146 210.758 10.8106C210.97 10.6067 211.211 10.4476 211.48 10.3334C211.749 10.2192 212.039 10.1621 212.349 10.1621C212.667 10.1621 212.965 10.2192 213.242 10.3334C213.528 10.4476 213.777 10.6067 213.989 10.8106C214.201 11.0146 214.368 11.2511 214.49 11.5203C214.613 11.7895 214.674 12.0791 214.674 12.3891Z"
		fill="white"
	/>
	<path
		d="M225.322 17.2345C225.566 17.0061 225.819 16.794 226.08 16.5982C226.341 16.4025 226.619 16.2393 226.912 16.1088C227.214 15.9701 227.536 15.8641 227.879 15.7907C228.23 15.7091 228.609 15.6683 229.017 15.6683C229.71 15.6683 230.322 15.7907 230.852 16.0354C231.391 16.272 231.844 16.6064 232.211 17.0387C232.578 17.4629 232.855 17.9728 233.043 18.5682C233.23 19.1556 233.324 19.7959 233.324 20.4893V28.5528H229.531V20.4893C229.531 19.8693 229.388 19.3881 229.103 19.0455C228.817 18.6947 228.397 18.5193 227.842 18.5193C227.426 18.5193 227.035 18.609 226.668 18.7885C226.309 18.9598 225.958 19.1964 225.615 19.4982V28.5528H221.822V15.8641H224.172C224.645 15.8641 224.955 16.0762 225.101 16.5004L225.322 17.2345Z"
		fill="white"
	/>
	<path
		d="M245.507 21.5416C246.135 21.5416 246.587 21.3866 246.865 21.0766C247.15 20.7585 247.293 20.3506 247.293 19.853C247.293 19.3391 247.15 18.9353 246.865 18.6417C246.587 18.348 246.135 18.2012 245.507 18.2012C244.878 18.2012 244.422 18.348 244.136 18.6417C243.859 18.9353 243.72 19.3391 243.72 19.853C243.72 20.0977 243.753 20.3221 243.818 20.526C243.891 20.7299 244.001 20.9094 244.148 21.0644C244.295 21.2112 244.479 21.3295 244.699 21.4192C244.927 21.5008 245.197 21.5416 245.507 21.5416ZM248.443 29.0178C248.443 28.716 248.309 28.4998 248.039 28.3693C247.77 28.2306 247.419 28.1327 246.987 28.0756C246.555 28.0185 246.069 27.9859 245.531 27.9777C245.001 27.9614 244.471 27.9288 243.94 27.8798C243.704 28.043 243.508 28.2265 243.353 28.4305C243.206 28.6262 243.133 28.8506 243.133 29.1034C243.133 29.2829 243.169 29.4461 243.243 29.5929C243.324 29.7397 243.463 29.8662 243.659 29.9722C243.855 30.0782 244.116 30.1598 244.442 30.2169C244.776 30.2822 245.197 30.3148 245.702 30.3148C246.249 30.3148 246.697 30.2822 247.048 30.2169C247.399 30.1517 247.676 30.0619 247.88 29.9477C248.092 29.8335 248.239 29.6949 248.321 29.5317C248.402 29.3767 248.443 29.2054 248.443 29.0178ZM252.187 16.2556V17.6383C252.187 17.8504 252.126 18.0176 252.004 18.14C251.89 18.2623 251.69 18.3562 251.404 18.4214L250.487 18.6294C250.536 18.8089 250.572 18.9924 250.597 19.18C250.629 19.3677 250.646 19.5634 250.646 19.7674C250.646 20.4036 250.511 20.9747 250.242 21.4804C249.981 21.9862 249.618 22.4185 249.153 22.7774C248.696 23.1282 248.154 23.4015 247.525 23.5972C246.897 23.7849 246.224 23.8787 245.507 23.8787C245.311 23.8787 245.119 23.8746 244.931 23.8664C244.744 23.8501 244.56 23.8256 244.381 23.793C244.103 23.9643 243.965 24.156 243.965 24.3681C243.965 24.5802 244.079 24.7352 244.307 24.8331C244.536 24.9228 244.838 24.9881 245.213 25.0289C245.588 25.0615 246.012 25.086 246.485 25.1023C246.967 25.1104 247.456 25.139 247.954 25.1879C248.451 25.2287 248.937 25.3021 249.41 25.4082C249.891 25.5142 250.319 25.6855 250.695 25.9221C251.07 26.1586 251.372 26.4768 251.6 26.8765C251.828 27.268 251.943 27.7697 251.943 28.3815C251.943 28.9525 251.804 29.5113 251.527 30.0579C251.249 30.6044 250.841 31.0898 250.303 31.5139C249.765 31.9381 249.104 32.2767 248.321 32.5295C247.538 32.7906 246.64 32.9211 245.629 32.9211C244.634 32.9211 243.773 32.8273 243.047 32.6397C242.329 32.452 241.73 32.2032 241.248 31.8933C240.775 31.5914 240.424 31.2407 240.196 30.841C239.968 30.4412 239.853 30.0252 239.853 29.5929C239.853 29.03 240.017 28.561 240.343 28.1857C240.669 27.8105 241.126 27.5087 241.713 27.2803C241.403 27.0927 241.159 26.852 240.979 26.5584C240.8 26.2647 240.71 25.8854 240.71 25.4204C240.71 25.2328 240.743 25.037 240.808 24.8331C240.873 24.621 240.975 24.4171 241.114 24.2213C241.261 24.0173 241.44 23.8256 241.652 23.6462C241.864 23.4667 242.117 23.3077 242.411 23.169C241.75 22.8182 241.228 22.3573 240.845 21.7863C240.461 21.2071 240.27 20.5342 240.27 19.7674C240.27 19.1311 240.404 18.5601 240.673 18.0543C240.942 17.5404 241.31 17.1081 241.775 16.7573C242.248 16.3984 242.802 16.1251 243.439 15.9375C244.075 15.7417 244.764 15.6438 245.507 15.6438C246.583 15.6438 247.538 15.8478 248.37 16.2556H252.187Z"
		fill="white"
	/>
	<path
		d="M106.273 47.7811H104.97V43.6147L101.941 35.4472H103.281L104.529 38.806C104.578 38.9406 104.951 40.0357 105.649 42.0914C106.102 40.6842 106.879 38.4695 107.98 35.4472H109.301L106.273 43.6147V47.7811Z"
		fill="white"
	/>
	<path
		d="M119.051 38.2003C119.051 37.0379 118.445 36.4567 117.234 36.4567C116.034 36.4567 115.435 37.0379 115.435 38.2003V45.028C115.435 46.2027 116.034 46.79 117.234 46.79C118.445 46.79 119.051 46.2027 119.051 45.028V38.2003ZM114.132 38.182C114.132 37.3132 114.395 36.6096 114.921 36.0712C115.447 35.5329 116.218 35.2637 117.234 35.2637C118.261 35.2637 119.038 35.5329 119.565 36.0712C120.091 36.6096 120.354 37.3132 120.354 38.182V45.0647C120.354 45.9335 120.091 46.637 119.565 47.1754C119.038 47.7016 118.261 47.9646 117.234 47.9646C116.206 47.9646 115.429 47.7016 114.903 47.1754C114.389 46.637 114.132 45.9335 114.132 45.0647V38.182Z"
		fill="white"
	/>
	<path
		d="M131.183 35.4472H132.486V45.0647C132.486 45.9335 132.223 46.637 131.697 47.1754C131.183 47.7016 130.412 47.9646 129.385 47.9646C128.357 47.9646 127.58 47.7016 127.054 47.1754C126.54 46.637 126.283 45.9335 126.283 45.0647V35.4472H127.586V45.028C127.586 46.2027 128.185 46.79 129.385 46.79C130.584 46.79 131.183 46.2027 131.183 45.028V35.4472Z"
		fill="white"
	/>
	<path
		d="M141.715 42.8255H139.898V47.7811H138.595V35.4472H141.587C142.566 35.4472 143.306 35.698 143.807 36.1997C144.309 36.6892 144.56 37.3621 144.56 38.2187V40.0357C144.56 41.3572 144.034 42.2137 142.982 42.6053L144.945 47.7811H143.514L141.715 42.8255ZM139.898 41.6876H141.532C142.682 41.6876 143.257 41.1308 143.257 40.0174V38.2737C143.257 37.1603 142.682 36.6035 141.532 36.6035H139.898V41.6876Z"
		fill="white"
	/>
	<path
		d="M157.82 35.4472H159.124V44.147C159.124 45.7132 158.922 47.1938 158.518 48.5887L157.949 50.5159H156.609L157.16 48.5887C157.6 47.0225 157.82 45.548 157.82 44.1654V35.4472Z"
		fill="white"
	/>
	<path
		d="M170.062 38.2003C170.062 37.0379 169.456 36.4567 168.245 36.4567C167.046 36.4567 166.446 37.0379 166.446 38.2003V45.028C166.446 46.2027 167.046 46.79 168.245 46.79C169.456 46.79 170.062 46.2027 170.062 45.028V38.2003ZM165.143 38.182C165.143 37.3132 165.406 36.6096 165.932 36.0712C166.458 35.5329 167.229 35.2637 168.245 35.2637C169.273 35.2637 170.05 35.5329 170.576 36.0712C171.102 36.6096 171.365 37.3132 171.365 38.182V45.0647C171.365 45.9335 171.102 46.637 170.576 47.1754C170.05 47.7016 169.273 47.9646 168.245 47.9646C167.217 47.9646 166.44 47.7016 165.914 47.1754C165.4 46.637 165.143 45.9335 165.143 45.0647V38.182Z"
		fill="white"
	/>
	<path
		d="M182.194 35.4472H183.498V45.0647C183.498 45.9335 183.235 46.637 182.708 47.1754C182.194 47.7016 181.424 47.9646 180.396 47.9646C179.368 47.9646 178.591 47.7016 178.065 47.1754C177.551 46.637 177.294 45.9335 177.294 45.0647V35.4472H178.597V45.028C178.597 46.2027 179.197 46.79 180.396 46.79C181.595 46.79 182.194 46.2027 182.194 45.028V35.4472Z"
		fill="white"
	/>
	<path
		d="M192.726 42.8255H190.909V47.7811H189.606V35.4472H192.598C193.577 35.4472 194.317 35.698 194.819 36.1997C195.32 36.6892 195.571 37.3621 195.571 38.2187V40.0357C195.571 41.3572 195.045 42.2137 193.993 42.6053L195.957 47.7811H194.525L192.726 42.8255ZM190.909 41.6876H192.543C193.693 41.6876 194.268 41.1308 194.268 40.0174V38.2737C194.268 37.1603 193.693 36.6035 192.543 36.6035H190.909V41.6876Z"
		fill="white"
	/>
	<path
		d="M207.135 45.6887L207.006 41.6325V35.4472H208.309V47.7811H206.804L204.272 41.3939C204.174 41.137 203.69 39.8583 202.822 37.5579L202.932 41.5958V47.7811H201.665V35.4472H203.17C205.116 40.3906 206.437 43.8044 207.135 45.6887Z"
		fill="white"
	/>
	<path
		d="M214.513 35.4472H219.854V36.6035H215.816V40.9901H219.34V42.1464H215.816V46.6248H219.854V47.7811H214.513V35.4472Z"
		fill="white"
	/>
	<path
		d="M228.617 47.7811H227.314V43.6147L224.286 35.4472H225.626L226.874 38.806C226.923 38.9406 227.296 40.0357 227.993 42.0914C228.446 40.6842 229.223 38.4695 230.324 35.4472H231.646L228.617 43.6147V47.7811Z"
		fill="white"
	/>
</svg>
