<svg
	width="22"
	height="22" viewBox="0 0 22 22"
	fill="none"
	xmlns="http://www.w3.org/2000/svg"
>
	<g id="elements">
		<path
			id="Vector"
			d="M20.4697 21.5303C20.7626 21.8232 21.2374 21.8232 21.5303 21.5303C21.8232 21.2374 21.8232 20.7626 21.5303 20.4697L20.4697 21.5303ZM18.8697 19.9303L20.4697 21.5303L21.5303 20.4697L19.9303 18.8697L18.8697 19.9303ZM20.95 16.6C20.95 14.1976 19.0024 12.25 16.6 12.25V13.75C18.174 13.75 19.45 15.026 19.45 16.6H20.95ZM16.6 12.25C14.1976 12.25 12.25 14.1976 12.25 16.6H13.75C13.75 15.026 15.026 13.75 16.6 13.75V12.25ZM12.25 16.6C12.25 19.0024 14.1976 20.95 16.6 20.95V19.45C15.026 19.45 13.75 18.174 13.75 16.6H12.25ZM16.6 20.95C19.0024 20.95 20.95 19.0024 20.95 16.6H19.45C19.45 18.174 18.174 19.45 16.6 19.45V20.95Z"
			fill="#141B34"
		/>
		<path
			id="Vector_2"
			d="M21 11.0642V8.21749C21 6.27787 21 5.30807 20.4142 4.7055C19.8284 4.10294 18.8856 4.10294 17 4.10294H14.9214C14.004 4.10294 13.9964 4.10116 13.1715 3.68834L9.83987 2.02114C8.44884 1.32504 7.75332 0.976991 7.01238 1.00118C6.27143 1.02537 5.59877 1.41808 4.25345 2.20351L3.02558 2.92037C2.03739 3.49729 1.54329 3.78576 1.27164 4.26564C1 4.74553 1 5.32993 1 6.49873V14.7157C1 16.2514 1 17.0193 1.34226 17.4467C1.57001 17.731 1.88916 17.9222 2.242 17.9856C2.77226 18.0808 3.42148 17.7018 4.71987 16.9437C5.60156 16.429 6.45011 15.8944 7.50487 16.0394C8.38869 16.1608 9.21 16.7185 10 17.1138"
			stroke="#141B34"
			stroke-width="1.5"
			stroke-linecap="round"
			stroke-linejoin="round"
		/>
		<path
			id="Vector 4642"
			d="M7 1L7 16"
			stroke="#141B34"
			stroke-width="1.5"
			stroke-linejoin="round"
		/>
		<path
			id="Vector 4643"
			d="M14 4V10"
			stroke="#141B34"
			stroke-width="1.5"
			stroke-linecap="round"
			stroke-linejoin="round"
		/>
	</g>
</svg>
