<svg
	width="22"
	height="22"
	viewBox="0 0 22 22"
	fill="none"
	xmlns="http://www.w3.org/2000/svg"
>
	<g id="elements">
		<path
			id="Vector"
			d="M21 9V8.21749C21 6.27787 21 5.30807 20.4142 4.7055C19.8284 4.10294 18.8856 4.10294 17 4.10294H14.9214C14.004 4.10294 13.9964 4.10116 13.1715 3.68834L9.83987 2.02114C8.44884 1.32504 7.75332 0.976991 7.01238 1.00118C6.27143 1.02537 5.59877 1.41808 4.25345 2.20351L3.02558 2.92037C2.03739 3.49729 1.54329 3.78576 1.27164 4.26564C1 4.74553 1 5.32993 1 6.49873V14.7157C1 16.2514 1 17.0193 1.34226 17.4467C1.57001 17.731 1.88916 17.9222 2.242 17.9856C2.77226 18.0808 3.42148 17.7018 4.71987 16.9437C5.60156 16.429 6.45011 15.8944 7.50487 16.0394C8.38869 16.1608 9.21 16.7185 10 17.1138"
			stroke="#141B34"
			stroke-width="1.5"
			stroke-linecap="round"
			stroke-linejoin="round"
		/>
		<path
			id="Vector 4644"
			d="M7 1L7 16"
			stroke="#141B34"
			stroke-width="1.5"
			stroke-linejoin="round"
		/>
		<path
			id="Vector 4645"
			d="M14 4V8.5"
			stroke="#141B34"
			stroke-width="1.5"
			stroke-linecap="round"
			stroke-linejoin="round"
		/>
		<path
			id="Vector_2"
			d="M17.3083 20.6835C17.0915 20.8865 16.8017 21 16.5001 21C16.1985 21 15.9087 20.8865 15.6919 20.6835C13.7063 18.813 11.0455 16.7235 12.3431 13.6898C13.0447 12.0496 14.7289 11 16.5001 11C18.2713 11 19.9555 12.0496 20.6571 13.6898C21.9531 16.7196 19.2988 18.8194 17.3083 20.6835Z"
			stroke="#141B34"
			stroke-width="1.5"
		/>
		<path
			id="Vector_3"
			d="M16.5 15.5H16.509"
			stroke="#141B34"
			stroke-width="2"
			stroke-linecap="round"
			stroke-linejoin="round"
		/>
	</g>
</svg>
