<svg
	width="16"
	height="22"
	viewBox="0 0 16 22"
	fill="none"
	xmlns="http://www.w3.org/2000/svg"
>
	<g id="elements">
		<path
			id="Rectangle 17709"
			d="M1 5.00012C1 3.1145 1 2.17169 1.58579 1.58591C2.17157 1.00012 3.11438 1.00012 5 1.00012H11C12.8856 1.00012 13.8284 1.00012 14.4142 1.58591C15 2.17169 15 3.1145 15 5.00012V19.0001C15 19.9429 15 20.4143 14.7071 20.7072C14.4142 21.0001 13.9428 21.0001 13 21.0001H3C2.05719 21.0001 1.58579 21.0001 1.29289 20.7072C1 20.4143 1 19.9429 1 19.0001V5.00012Z"
			stroke="#1E1E1E"
			stroke-width="1.5"
			stroke-linecap="round"
			stroke-linejoin="round"
		/>
		<path
			id="Vector"
			d="M4 6.00012H4.00898"
			stroke="#1E1E1E"
			stroke-width="2"
			stroke-linecap="round"
			stroke-linejoin="round"
		/>
		<path
			id="Vector_2"
			d="M4 12.0001H4.00898"
			stroke="#1E1E1E"
			stroke-width="2"
			stroke-linecap="round"
			stroke-linejoin="round"
		/>
		<path
			id="Vector 6611"
			d="M1 9.00012H15"
			stroke="#1E1E1E"
			stroke-width="1.5"
			stroke-linecap="round"
			stroke-linejoin="round"
		/>
	</g>
</svg>
