<svg
	width="20"
	height="22"
	viewBox="0 0 20 22"
	fill="none"
	xmlns="http://www.w3.org/2000/svg"
>
	<g id="elements">
		<path
			id="Vector 4495"
			d="M7 21L4 14L1 21H7Z"
			stroke="#141B34"
			stroke-width="1.5"
			stroke-linecap="round"
			stroke-linejoin="round"
		/>
		<path
			id="Ellipse 1587"
			d="M16.1917 12.3352C17.4847 13.6282 18.1312 14.2747 17.9778 15.2732C17.9707 15.3193 17.9548 15.3994 17.9437 15.4447C17.7033 16.4259 17.0448 16.6987 15.7276 17.2443C14.5231 17.7432 13.2321 18 11.9283 18C10.6245 18 9.33343 17.7432 8.12888 17.2443C6.92433 16.7453 5.82984 16.014 4.90792 15.0921C3.986 14.1702 3.25468 13.0757 2.75574 11.8711C2.2568 10.6666 2 9.37553 2 8.07173C2 6.76794 2.2568 5.4769 2.75575 4.27235C3.30131 2.95524 3.5741 2.29668 4.55528 2.05633C4.60061 2.04523 4.68071 2.0293 4.72683 2.02221C5.72531 1.86878 6.3718 2.51527 7.66479 3.80826L16.1917 12.3352Z"
			stroke="#141B34"
			stroke-width="1.5"
			stroke-linecap="round"
			stroke-linejoin="round"
		/>
		<circle
			id="Ellipse 1588"
			cx="17"
			cy="3"
			r="2"
			stroke="#141B34"
			stroke-width="1.5"
		/>
		<path
			id="Vector"
			d="M10.5 6.13264L15.7134 4.52905L13.8766 9.52905"
			stroke="#141B34"
			stroke-width="1.5"
			stroke-linecap="round"
			stroke-linejoin="round"
		/>
	</g>
</svg>
