<svg
	width="20"
	height="23"
	viewBox="0 0 20 23"
	fill="none"
	xmlns="http://www.w3.org/2000/svg"
>
	<g id="elements">
		<path
			id="Vector 6781"
			d="M16 6.5C16.7745 6.66058 17.3588 6.92859 17.8284 7.37589C19 8.49181 19 10.2879 19 13.88C19 17.4721 19 19.2681 17.8284 20.3841C16.6569 21.5 14.7712 21.5 11 21.5H9C5.22876 21.5 3.34315 21.5 2.17157 20.3841C1 19.2681 1 17.4721 1 13.88C1 10.2879 1 8.49181 2.17157 7.37589C2.64118 6.92859 3.2255 6.66058 4 6.5"
			stroke="#141B34"
			stroke-width="1.5"
			stroke-linecap="round"
		/>
		<path
			id="Vector"
			d="M10.0253 1.50052L10 13.5M10.0253 1.50052C9.86266 1.49379 9.69906 1.55191 9.55333 1.67492C8.64686 2.44006 7 4.42886 7 4.42886M10.0253 1.50052C10.1711 1.50657 10.3162 1.56476 10.4468 1.67508C11.3531 2.44037 13 4.42886 13 4.42886"
			stroke="#141B34"
			stroke-width="1.5"
			stroke-linecap="round"
			stroke-linejoin="round"
		/>
	</g>
</svg>
