<svg
	width="20"
	height="20"
	viewBox="0 0 20 20"
	fill="none"
	xmlns="http://www.w3.org/2000/svg"
>
	<g id="elements">
		<path
			id="Vector"
			d="M19 12.2501L18.1689 11.5911C17.223 10.8411 16.75 10.4661 16.75 10.0001C16.75 9.53413 17.223 9.15913 18.1689 8.40913L19 7.75012M1 7.75012L1.83115 8.40913C2.77705 9.15913 3.25 9.53413 3.25 10.0001C3.25 10.4661 2.77705 10.8411 1.83115 11.5911L1 12.2501"
			stroke="#141B34"
			stroke-width="1.5"
			stroke-linecap="round"
			stroke-linejoin="round"
		/>
		<path
			id="Vector_2"
			d="M12.5718 19.0001L12.7282 17.9413C12.9062 16.7363 12.9951 16.1338 13.4019 15.8987C13.8087 15.6636 14.3744 15.8877 15.5058 16.3359L16.5 16.7297M7.4282 1.00012L7.27182 2.05892C7.09384 3.26391 7.00486 3.86641 6.59808 4.10151C6.1913 4.33662 5.62558 4.11252 4.49416 3.66432L3.5 3.2705"
			stroke="#141B34"
			stroke-width="1.5"
			stroke-linecap="round"
			stroke-linejoin="round"
		/>
		<path
			id="Vector_3"
			d="M3 16.7319L4.07032 16.3376C5.2884 15.889 5.89747 15.6646 6.33521 15.8995C6.77295 16.1344 6.86844 16.7368 7.05941 17.9415L7.22722 19.0001M17 3.26838L15.9297 3.66261C14.7116 4.11127 14.1025 4.3356 13.6648 4.10072C13.2271 3.86583 13.1316 3.26346 12.9406 2.05871L12.7728 1.00012"
			stroke="#141B34"
			stroke-width="1.5"
			stroke-linecap="round"
			stroke-linejoin="round"
		/>
		<path
			id="Vector_4"
			d="M17 10.0004H3M13.5 15.9999L6.5 4.00012M13.5 4.00037L6.5 16.0001"
			stroke="#141B34"
			stroke-width="1.5"
			stroke-linejoin="round"
		/>
	</g>
</svg>
