<svg
	width="22"
	height="22"
	viewBox="0 0 22 22"
	fill="none"
	xmlns="http://www.w3.org/2000/svg"
>
	<g id="elements">
		<path
			id="Rectangle 2058"
			d="M1.5 11C1.5 6.52166 1.5 4.28249 2.89124 2.89124C4.28249 1.5 6.52166 1.5 11 1.5C15.4783 1.5 17.7175 1.5 19.1088 2.89124C20.5 4.28249 20.5 6.52166 20.5 11C20.5 15.4783 20.5 17.7175 19.1088 19.1088C17.7175 20.5 15.4783 20.5 11 20.5C6.52166 20.5 4.28249 20.5 2.89124 19.1088C1.5 17.7175 1.5 15.4783 1.5 11Z"
			stroke="#141B34"
			stroke-width="1.5"
		/>
		<path
			id="Vector 7025"
			d="M11.8889 15L14.7612 11.307C14.9017 11.1264 14.9017 10.8736 14.7612 10.693L11.8889 7M7 7L9.87236 10.693C10.0128 10.8736 10.0128 11.1264 9.87236 11.307L7 15"
			stroke="#141B34"
			stroke-width="1.5"
			stroke-linecap="round"
			stroke-linejoin="round"
		/>
	</g>
</svg>
