<svg
	width="80"
	height="80"
	viewBox="0 0 80 80"
	fill="none"
	xmlns="http://www.w3.org/2000/svg"
>
	<path
		d="M6.66675 38.3337C6.66675 23.4058 6.66675 15.9419 11.3042 11.3045C15.9417 6.66699 23.4056 6.66699 38.3334 6.66699C53.2612 6.66699 60.7251 6.66699 65.3626 11.3045C70.0001 15.9419 70.0001 23.4058 70.0001 38.3337C70.0001 53.2615 70.0001 60.7254 65.3626 65.3628C60.7251 70.0003 53.2612 70.0003 38.3334 70.0003C23.4056 70.0003 15.9417 70.0003 11.3042 65.3628C6.66675 60.7254 6.66675 53.2615 6.66675 38.3337Z"
		stroke="#03306B"
		stroke-width="3"
		stroke-linejoin="round"
	/>
	<path
		d="M41.2128 24.074L44.1458 29.9885C44.5458 30.8118 45.6123 31.6015 46.5122 31.7527L51.8283 32.6433C55.2279 33.2145 56.0278 35.7013 53.5781 38.1545L49.4452 42.3215C48.7453 43.0272 48.362 44.3882 48.5787 45.3628L49.7619 50.5212C50.6951 54.6042 48.5453 56.1836 44.9624 54.0497L39.9796 51.0756C39.0797 50.538 37.5965 50.538 36.68 51.0756L31.6972 54.0497C28.1309 56.1836 25.9645 54.5874 26.8977 50.5212L28.0809 45.3628C28.2976 44.3882 27.9143 43.0272 27.2144 42.3215L23.0815 38.1545C20.6484 35.7013 21.4317 33.2145 24.8313 32.6433L30.1474 31.7527C31.0306 31.6015 32.0971 30.8118 32.4971 29.9885L35.4301 24.074C37.0299 20.8647 39.6297 20.8647 41.2128 24.074Z"
		stroke="#03306B"
		stroke-width="3"
		stroke-linecap="round"
		stroke-linejoin="round"
	/>
</svg>
