<svg
	width="22"
	height="22"
	viewBox="0 0 22 22"
	fill="none"
	xmlns="http://www.w3.org/2000/svg"
>
	<g id="elements">
	<path
		id="Ellipse 1199"
		d="M16 11C16 13.7614 13.7614 16 11 16C8.23858 16 6 13.7614 6 11C6 8.23858 8.23858 6 11 6C13.7614 6 16 8.23858 16 11Z"
		stroke="#141B34"
		stroke-width="1.5"
	/>
	<path
		id="Vector"
		d="M11 1C10.6227 1.33333 10.0945 2.2 11 3M11 19C11.3773 19.3333 11.9055 20.2 11 21M18.5 3.50271C17.9685 3.46982 16.9253 3.72293 17.0042 4.99847M4.49576 16.5C4.52865 17.0315 4.27555 18.0747 3 17.9958M4.00271 3.5C3.96979 4.03202 4.22315 5.0763 5.5 4.99729M17 16.5026C17.5315 16.4715 18.5747 16.7108 18.4958 17.9168M21 11C20.6667 10.6227 19.8 10.0945 19 11M3 10.5C2.66667 10.8773 1.8 11.4055 1 10.5"
		stroke="#141B34"
		stroke-width="1.5"
		stroke-linecap="round"
	/>
	</g>
</svg>
