<svg
	width="16"
	height="16"
	viewBox="0 0 16 16"
	fill="none"
	xmlns="http://www.w3.org/2000/svg"
>
	<g id="vuesax/bold/frame">
		<g id="frame">
			<path
				id="Vector"
				d="M8.00016 1.32617C6.2535 1.32617 4.8335 2.74617 4.8335 4.49284C4.8335 6.20617 6.1735 7.59284 7.92016 7.65284C7.9735 7.64617 8.02683 7.64617 8.06683 7.65284C8.08016 7.65284 8.08683 7.65284 8.10016 7.65284C8.10683 7.65284 8.10683 7.65284 8.1135 7.65284C9.82016 7.59284 11.1602 6.20617 11.1668 4.49284C11.1668 2.74617 9.74683 1.32617 8.00016 1.32617Z"
				fill="#A2A2A2"
			/>
			<path
				id="Vector_2"
				d="M11.3866 9.42609C9.52664 8.18609 6.49331 8.18609 4.61997 9.42609C3.77331 9.99276 3.30664 10.7594 3.30664 11.5794C3.30664 12.3994 3.77331 13.1594 4.61331 13.7194C5.54664 14.3461 6.77331 14.6594 7.99997 14.6594C9.22664 14.6594 10.4533 14.3461 11.3866 13.7194C12.2266 13.1528 12.6933 12.3928 12.6933 11.5661C12.6866 10.7461 12.2266 9.98609 11.3866 9.42609Z"
				fill="#A2A2A2"
			/>
		</g>
	</g>
</svg>
