<svg
	width="22"
	height="22"
	viewBox="0 0 22 22"
	fill="none"
	xmlns="http://www.w3.org/2000/svg"
>
	<g id="elements">
		<path
			id="Vector"
			d="M10.5 13.0116C8.45338 12.9164 6.38334 13.4064 4.57757 14.4816C3.1628 15.324 -0.546635 17.0441 1.71266 19.1966C2.81631 20.248 4.04549 21 5.59087 21H11"
			stroke="#1E1E1E"
			stroke-width="1.5"
			stroke-linecap="round"
			stroke-linejoin="round"
		/>
		<path
			id="Ellipse 1381"
			d="M14.5 5.5C14.5 7.98528 12.4853 10 10 10C7.51472 10 5.5 7.98528 5.5 5.5C5.5 3.01472 7.51472 1 10 1C12.4853 1 14.5 3.01472 14.5 5.5Z"
			stroke="#141B34"
			stroke-width="1.5"
		/>
		<path
			id="Vector_2"
			d="M17 19.7143V21M17 19.7143C15.8432 19.7143 14.8241 19.1461 14.2263 18.2833M17 19.7143C18.1568 19.7143 19.1759 19.1461 19.7737 18.2833M17 13.2857C18.1569 13.2857 19.1761 13.854 19.7738 14.7169M17 13.2857C15.8431 13.2857 14.8239 13.854 14.2262 14.7169M17 13.2857V12M21 13.9286L19.7738 14.7169M13.0004 19.0714L14.2263 18.2833M13 13.9286L14.2262 14.7169M20.9996 19.0714L19.7737 18.2833M19.7738 14.7169C20.1273 15.2271 20.3333 15.8403 20.3333 16.5C20.3333 17.1597 20.1272 17.773 19.7737 18.2833M14.2262 14.7169C13.8727 15.2271 13.6667 15.8403 13.6667 16.5C13.6667 17.1597 13.8728 17.773 14.2263 18.2833"
			stroke="#1E1E1E"
			stroke-width="1.5"
			stroke-linecap="round"
		/>
	</g>
</svg>
